<svg version="1" xmlns="http://www.w3.org/2000/svg" width="1365.333" height="1365.333" viewBox="0 0 1024.000000 1024.000000"><path d="M0 499.5C0 774.2.2 999 .5 999s5.3-7.3 11.2-16.3c17.1-25.9 25.5-36.8 42.2-54.2 5.8-6.1 14.9-15.8 20.1-21.5 5.2-5.8 14.3-15.4 20.1-21.5 5.8-6 17.2-18.8 25.3-28.3 8.1-9.5 18.4-20.5 22.9-24.4 21.8-19.1 79.1-75.6 85.9-84.8 2.3-3 5.4-7.1 6.9-9.1 3.3-4.3 9.4-16.4 14.7-29 2.2-5.2 9.6-20.9 16.6-35 11.9-24.2 13-26 19.7-32.8 3.8-3.9 7.5-7.1 8-7.1.7 0 .8-1.2.4-3-.4-1.9-.3-3 .4-3 .6 0 1.1.9 1.1 2s.4 2 .8 2c.5 0 .2-3.9-.5-8.6-.9-5.5-1-9-.4-9.8.5-.6.9-4.8.9-9.3 0-4.5.4-8.9 1-9.9s.6-2.9.1-4.7c-.5-1.6-.6-3.4-.2-4 .3-.6.1-.7-.5-.3-.8.5-1.2 0-1.2-1.3 0-1.9-1.3-3.2-11-10.3-2.5-1.9-5.7-5.6-7.2-8.3-2.4-4.5-2.6-5.8-2.2-12 .6-8.1-1-13.5-5.4-19.3-3.8-4.8-4.9-8.3-6.2-21.2-.6-5.8-1.8-12.5-2.5-15-.8-2.5-2.4-9.2-3.5-15-1.2-5.8-3-13.2-4.1-16.5-3-8.9-3.2-27.4-.3-33 2.5-4.9 9.1-8.7 13.6-7.8 2.1.4 3.2.1 4.2-1.3 1.3-1.7 1.4-1.6.9.9-.3 1.5-.1 2.7.5 2.7 1.6 0 2-2.2.9-5.7-.8-2.6-1.3-3-2.4-2.2-1 .9-1.3.8-1.3-.5 0-.9.4-1.6.8-1.6.9 0 3.2-4.4 3.2-6 0-2-1.9-.9-2.4 1.2-.3 1.3-.3-.1-.1-3 .3-3.3 0-5.2-.7-5.2s-.7-.4.1-1.4c1.1-1.3 1.2-6.6.1-6.6-.3 0-1.1.5-1.8 1.2-.9.9-1.2.8-1.2-.4 0-.8 1-2.3 2.3-3.2 1.5-1.2 1.8-1.8 1-2.2-.7-.3-1.3-1.8-1.3-3.2-.1-2.3-.3-2.5-1.3-1.2-.7.8-2.1 1.6-3.2 1.7-1.8.1-1.8 0 .3-1.5 2.1-1.6 2.2-2.6 2.7-17.7.3-8.8.7-17.4 1-19 .2-1.7.6-4.6.9-6.5.3-1.9.8-5.8 1.2-8.5.4-2.8 1.3-6.2 2-7.6.8-1.6.9-3 .4-3.5-1.3-1.3-.2-4.8 2.1-6.2 1.1-.7 1.9-.8 1.9-.2 0 .5-.4 1-1 1-.5 0-1 1.8-1 3.9 0 2.2-.5 5.2-1.1 6.8-.8 2.1-.7 2.5.1 1.7.6-.6 1.4-3 1.7-5.3.5-3.5.8-3.9 2.1-2.9 1.3 1.1 1.4 1 .8-.8-.4-1.5-.2-2.4.9-2.8.8-.3 1.5-1.3 1.5-2.3 0-1.5.2-1.6 1-.3s1 1.2 1-.3c0-.9-.3-1.7-.7-1.7-.5 0-.9-1.1-.9-2.5-.1-1.3.3-2.3 1-2.2.7.1 1-1.2.8-3.8-.2-3 0-3.6.8-2.5.9 1.3 1 1.3 1 0 0-.8.3-2.6.6-4 .4-2 .3-2.2-.5-1-.9 1.3-1.1 1.3-1.1-.3 0-.9.7-1.7 1.6-1.7.8 0 1.3-.4.9-.9-.3-.5-.1-1.2.5-1.6 1.7-1.1 1.1 4.9-1.3 12.4-2.4 7.1-2 9.5.7 4.3 2.5-4.9 3.8-11.4 3.1-16-.5-3.2-.9-4.1-1.6-3.1-.6 1.1-.9.8-1-1.1-.1-1.4-.1-3.1 0-3.8.1-.8-.2-1.9-.7-2.5-1.3-1.6-2.2-10.7-1.1-10.7.5 0 .9 1.6.9 3.6 0 2.1.4 3.3 1 2.9.6-.4.8-1.1.5-1.6-.4-.5-.1-1.7.4-2.6.8-1.5 1.1-1.1 1.2 2.2.1 2.2.1 4.9 0 5.9-.1 1.1.4 2.3 1.1 2.7 1.7 1.1 1.8 16.9.1 21.6-1.8 5.3-1.6 6.3.5 2.8 2.2-3.6 3.6-8.5 2.4-8.5-.5 0-.7-1.4-.4-3 .2-1.7.8-3 1.2-3 .4 0 1-1.2 1.3-2.8.3-1.5.7-3.4 1-4.2.2-.8.2-1.1-.1-.6-.3.5-1.3-.9-2.3-3.1-1.5-3.3-1.6-4.6-.7-8.1 1.5-6.1 2.3-5.2 2 2.3-.2 5.3 0 6.5 1.3 6.5 1.1 0 1.5-1 1.5-3.5 0-3.8 1.9-5 2.1-1.3 0 1.5.7.5 1.9-2.7 1.5-4.1 1.9-4.5 1.9-2.3.1 1.6.5 2.8 1 2.8.4 0 .6 2.3.3 5.1-.4 4.1-.2 5.1.9 4.7 2.8-.9 5.9-7 5.9-11.5 0-2.6.4-4.2 1-3.8.5.3 1.5-.3 2.2-1.5 1.5-2.3 3-2.7 2.2-.5-.4.8-.2 1.5.4 1.5.5 0 1.3-.7 1.6-1.6.5-1.4.8-1.4 2.8 0 2.9 2 3.5 2 4.1-.2.4-1.3.5-1.2.6.5.1 2.4 2.1 4.3 2.1 2 0-1.4-2.9-7.7-3.1-6.7-1 5.9-2.3 6.8-1.6 1l.6-4.5-1.3 3.9c-.7 2.4-1.5 3.5-2 2.8-.4-.6-.2-2.1.4-3.3.7-1.1.9-2.3.6-2.7-.3-.3-.6 0-.6.6 0 .7-.7 1.2-1.5 1.2s-1.5.3-1.5.7c0 1.1-6.1 4.5-6.8 3.8-.3-.3.4-1.3 1.7-2.1 4.9-3.5 7.6-6.3 6.1-6.5-.8-.1-.1-.4 1.5-.8 2.6-.6 3-1.1 3-3.9 0-3.5.4-3.8 2.4-2 1.1 1.1 1.2 1 .7 0-.4-.7-.3-1.9.4-2.7.7-.8.7-1.5.1-1.9-.5-.4-1.4.2-2 1.1-1.2 2.2-2.5 1-2.7-2.5-.1-1.5-.9-5.9-1.9-9.8-.9-3.9-1.5-7.9-1.4-8.8.6-2.5 2.4-1.9 2.4.7 0 1.2.7 3.3 1.5 4.7l1.4 2.5.7-4.2c1-5.7 6.9-17.9 8.1-16.7.3.3 1.3-1.5 2.1-4 .9-2.6 1.2-4.6.8-4.6-.4 0-2.2 1.3-3.9 2.8-2.5 2.3-2.9 3.1-1.9 4.1 1 1.1.8 1.1-1 .2-1.2-.6-3-.8-4-.4-1.6.6-1.6.5-.4-1 .7-.9 2.1-1.7 3-1.7.9 0 3.9-2.3 6.6-5 5.2-5.3 5.7-6.6.9-2.5-1.5 1.3-3 2.2-3.3 1.9-.8-.8 5.6-6.4 7.2-6.4.8 0 2-.7 2.7-1.5 2.4-2.8 2.3-.6-.1 3.2-3.9 6.1-5.9 11.2-4.8 11.9.5.3 1.6.1 2.3-.5.7-.6 1.6-.7 2.1-.3.4.4.5-.5.1-2.1-.4-1.5-.2-2.7.3-2.7.6 0 .7-.8.4-1.7-.5-1.2-.2-1.5 1-1 1.7.6 2.3-.6 2.9-6.2.2-1.4.8-2.6 1.5-2.8.8-.3.7 1.2-.3 5.3-2 7.3-1.5 8.6 2.5 7.1 1.6-.6 2.7-1.5 2.4-2.1-.4-.5.1-.7 1.1-.3.9.4 3.3 0 5.3-.8 1.9-.8 3.8-1.5 4.2-1.5 1.3.1-4.2 4-5.6 4-.8 0-1.2.4-.9.9.4.5-.2.7-1.3.4-2.7-.7-3.4 1.1-1.3 3.7 1.7 2.1 5.2 2 5.2-.3 0-.7-.4-.7-1.2.1-.7.7-1.6 1.2-2.1 1.2-.9 0 .4-1.4 3.6-3.9 1.5-1.2 1.7-1.2 1.1.4-.7 1.8-.9 1.8 5.3 0l2.3-.6-2.7-5.2c-1.5-2.9-3-5.3-3.5-5.5-.4-.2-.4-1-.1-1.9.4-1.1.2-1.4-.5-.9-.7.4-1.2 1.6-1.2 2.7 0 3.9-1.6 1.8-1.8-2.4 0-2.3.1-3.6.4-3 1.7 4.1 3.2-1.2 1.8-6.4-.7-2.5-3.9-2.6-5.5-.2-1.3 2.1-1.2-.7.1-3.2.8-1.3.7-1.9 0-1.9-.6 0-.8-.5-.5-1 .3-.6.1-1-.5-1-.7 0-1 .5-.8 1.2.4 1.2-4.9 6.4-5.7 5.6-.3-.2.4-1.4 1.5-2.6 3.2-3.4 2.4-3.4-3.5-.1-3 1.7-6 2.9-6.6 2.7-.7-.2 1.8-1.9 5.6-3.8 7.4-3.8 8.7-5 5.6-5-1.2 0-2.1-.4-2.1-.8 0-1.4 3.2-4 6.4-5.2 1.6-.6 2.6-1.3 2.3-1.6-.3-.3-1.5 0-2.7.6-2 1.1-2.1 1-1.1-.9.9-1.6.7-2.1-1.2-2.6-2.6-.8-7.4-5.1-8.9-8-.8-1.6-.4-1.4 1.8.6 3.8 3.5 9.5 6.9 11.5 6.9 1.7 0 5.7-6.5 4.7-7.5-.3-.3-1.3.1-2.2 1-2 2-2 1.7 0-3.1.9-2.1 2.5-4.5 3.5-5.2 1-.7 1.9-2 1.9-2.8 0-.8.7-1.4 1.5-1.4 2 0 1.9.2-.9 5.9-1.4 2.7-2.3 5.7-2 6.9.4 1.3-.2 2.8-1.5 4.1-1.2 1.2-1.9 2.7-1.5 3.3.5.8 1.1.6 1.9-.5.9-1.3 1.3-.8 2.4 3 1.3 5.1 7.7 14.6 9.2 13.7.5-.3.7-1 .4-1.5-.4-.5-.1-.9.4-.9.6 0 1.1.4 1.1 1 0 2 1.9 1 2.3-1.3.4-2.2.4-2.2.6 0 0 1.2.9 2.4 1.9 2.6 1.4.4 1.5.5.1.6-.9 0-1.9 1.2-2.2 2.7-.3 1.9-.1 2.4.9 2 4.5-1.9 4.9-1.9 3.7-.5-2.7 2.8-.6 4.1 2.2 1.3 1.6-1.7 12.5-2.7 12.5-1.2 0 .4-.4.8-1 .8-.5 0-1 .5-1 1.1 0 .8.5.8 1.5-.1.8-.7 1.5-1.8 1.5-2.5s.7-1.5 1.5-1.9c.8-.3 1.5-1 1.5-1.5 0-.6-1.9-.4-4.7.4-4.2 1.2-4.6 1.2-2.9 0 1.1-.8 3.1-1.5 4.4-1.5h2.3l-1.9-2.8c-3.5-5-3.4-5.7.1-1.7 3.8 4.4 6.8 5.2 7.9 2 .6-1.9.6-1.9.7.2.1 2.5 3.1 3.3 3.1.9 0-2.1 2.1-3.1 3.1-1.5.7 1.2.9 1.1.9-.1 0-1.1.9-1.6 2.8-1.5 1.5 0 3.3-.5 4-1.2.7-.7 2.1-1.2 3-1.2 1.5.1 1.5.2 0 .6-1 .2-1.8.8-1.8 1.3s1.4.4 3-.1c1.7-.6 3-1.5 3-2s.7-.9 1.6-.9c.9 0 1.8-1 2.2-2.2.5-2 .6-2 1.2-.4.5 1.4 1.2.3 2.8-4.1 1.2-3.3 2.2-7.1 2.2-8.5 0-1.3.4-2.8.9-3.4.5-.5 1.1-3.1 1.4-5.8.3-2.7.1-4.3-.3-3.6-.5.8-.9.3-1.2-1.4-.3-1.4-.2-2.4.1-2.1.4.2.7-.5.7-1.5s-.6-1.6-1.3-1.3c-.9.4-1.1 0-.6-1.3.4-1.2.3-1.5-.6-1-.8.5-1.8 0-2.7-1.3-.9-1.2-1.9-1.9-2.4-1.6-.5.3-1.5-.3-2.2-1.3-2.3-3.2-7.5-6.2-12.3-7.1-6.5-1.2-18.4 1.1-20.8 4.1-1 1.3-1.6 1.7-1.2 1 .9-1.7-.6-1.5-3.3.4-1.2.8-2.2 1.1-2.2.5 0-.9 5.9-3.9 14-7.2 5.5-2.2 18.7-1.7 24.1.9 2.5 1.2 5.1 2.2 5.7 2.2.7 0 1.2.6 1.2 1.4 0 .8.5 1.8 1.1 2.2.9.5 1-.1.5-2-.4-1.5-.2-2.6.4-2.6.5 0 1 1 1 2.2 0 1.3.5 3 1 3.8 1 1.5 1 1.5 1.4-5.2.1-.9.4-1.9.7-2.3 1.1-1.1 1.8 3.9 1 8-.6 3.6.4 7.1 2.9 9.5.9.9 4.9 13.3 5.6 17.5.4 2.2 1.1 4.3 1.6 4.6.5.3 1 1.7 1.2 3 .4 3.3 2.2 7.6 3.5 8.4 1.6.9 1.4-6.7-.4-15-1.7-8.2-2-15.8-.5-13.5.5.8 1 3.1 1.1 5l.2 3.5.6-4c.7-3.9.7-3.7 1.9 3.5.7 4.1 1.7 8.8 2.3 10.5.6 1.6 1.5 4.5 1.9 6.4.5 1.9 2.5 5 4.6 7l3.6 3.6-.6-3.3c-.5-3 .7-4.6 1.7-2 .2.7.8-.5 1.3-2.7l.8-4 .6 4c.3 2.2.6-3.3.6-12.2-.1-8.9.2-15.9.6-15.5.4.4 1.2 5.2 1.8 10.7 1.9 18.3 2.1 20 3.2 23.7 1 3.4 3.8 6.1 3.8 3.7 0-.7 1-.9 2.5-.5 2.3.6 2.5.4 2.5-2.6 0-1.8-.9-6-2-9.2-1.3-3.7-2-8.3-1.9-12.5.1-6.3.2-6.4.9-2.4.9 4.4 2.9 8.8 3.6 8 .3-.2 0-1.7-.6-3.2-1.1-2.8-1.1-21.7-.1-24.8.6-1.5 1.2-1.3 4.8 1.8 5.4 4.6 34.5 40.5 32.8 40.5-.4 0-1.5-1-2.5-2.3-1-1.2-2.2-1.9-2.6-1.4-.4.4.4 2 1.8 3.5 1.3 1.5 3.5 4.4 4.7 6.4 1.3 2.1 2.6 3.8 3 3.8.4 0 2.3 3.3 4.1 7.2 3.5 7.5 4.7 9.1 6.4 8.1.5-.3.6-.1.2.6-.4.6-1.2.9-1.7.6-.5-.4-.9-.1-.9.4 0 1.9 2.8 1.2 3.5-.9.3-1.1 1-2 1.5-2 1.4 0 2.1 3.3.8 4.2-.7.4-.8.8-.3.8.6 0 1.6-.5 2.2-1.1.7-.7 1.8 0 3.8 2.3 1.5 1.8 3.4 3.2 4.1 3 .7-.1 1.5.2 1.9.8.3.5 1.5 1 2.7 1 1.4 0 1.8.5 1.4 1.5-.6 1.7.9 2.1 1.9.5.9-1.4 2.3-1.2 2.2.2-.1 3.3.4 4.8 1.6 4.8 2.9 0 8 8.6 5.9 9.9-.7.4-1 2.4-.8 5.2.2 2.6-.1 4.7-.8 5.2-.8.6-.8 1 .2 1.4 1.7.7 1.5 5-.3 5.7-.8.3-1.5 1.2-1.5 2 0 1 .6 1.3 1.7.9 1.4-.5 1.5-.1 1 3.3-.4 2.1-.3 3.4.1 2.8 1.1-1.7 5.3.2 4.6 2.1-.4.8.1 1.7 1 2.1.9.3 1.4 1 1.1 1.4-.3.5-.1 1.2.5 1.5.6.4.8 1.5.5 2.6-.8 2.3.9 5.7 2 4 .9-1.5 3.5.4 3.5 2.6 0 .8.4 1.1 1 .8.6-.3 1 .3 1 1.5 0 1.7.4 2 1.9 1.5 2.2-.7 4.9 2.9 3.1 4-1 .6-1.1.5-1.4-1.4-.4-2.9-1.6-1.9-1.6 1.3 0 2 .4 3.5.9 3.1 1.7-1 2.4 1.8.8 3-.9.7-1.4 1.5-1 1.8.3.4 0 1.3-.7 2.2-.7.8-1 2.2-.6 3 .6 1.7-.5 2-2.1.4s-4.3 2.7-4.3 6.8c0 1.7-.5 3.5-1.1 3.8-.6.4-.7 1.9-.4 3.6.5 2 .3 2.9-.6 2.9-.8 0-1 1.7-.6 6.1.5 6.1 1.1 7.8 2.4 6.6.5-.6.8-1.7 1.2-6 .1-.5.5-.6 1-.3.9.6.9 2.3-.3 8.3-.4 2.1-.1 3.6.9 4.7.8.8 1.5 2.2 1.5 3 0 .9.5 1.6 1.1 1.6.6 0 .9.7.5 1.5-.4 1.2 0 1.4 1.9.9 1.5-.4 2.5-.2 2.5.5 0 .6 1.8 2 4 3.1s4 2.5 4 3c0 .6.7 1 1.5 1s1.5.9 1.5 2 .5 2 1 2c.6 0 1 1 1 2.2 0 1.3-.4 1.8-.8 1.3-.4-.6-1.5-1.6-2.4-2.4-2.3-1.7-2.4.2-.2 2.4 1.3 1.2 1.4 1.9.5 2.8-1.8 1.8-1.3 3.7 1.2 3.8 1.6.1 1.8.2.5.6-1 .2-1.8.5-1.8.6 0 .1.7 2.3 1.5 4.9.8 2.7 1 4.8.5 4.8-.6 0-1-.7-1-1.6 0-3.8-4.2 3.8-4.4 8.1-.1.5 1 1 2.4 1 1.5 0 2.4.5 2.2 1.2-.1.7.1 1.3.5 1.3 1.6 0 3-1.6 3-3.3 0-1.9-1.2-2.3-2.2-.7-.4.6-1 .8-1.5.5-.6-.4-.5-1.4.2-2.5.7-1 1.5-1.7 1.9-1.5.3.3 1.5-.2 2.5-1s2.2-1.5 2.6-1.5c1.1 0 .5 4.4-.7 5.2-.6.5-.6.8.2.8 1.5 0 4.3-2.8 4.3-4.3 0-.7 1.2.1 2.5 1.6 1.8 2.1 2.5 2.4 2.5 1.2 0-1 .7-1.5 1.8-1.3.9.2 1.7 1 1.7 1.8s-.6 1.4-1.3 1.2c-.6-.1-1.2.2-1.2.7 0 .5 1.6 1.2 3.5 1.5 1.9.4 3.5 1.2 3.5 1.7 0 .6-.8.8-1.8.5-1.2-.4-2.8.4-4.8 2.4-1.6 1.6-3.5 3-4.2 3-.7 0-3.2.9-5.4 2-4.5 2.2-6.2 2.5-5.4 1.1.3-.5-.3-1.1-1.5-1.4-1.6-.4-1.8-1.1-1.3-3.1.5-2.2.3-2.6-1.6-2.6-1.6 0-2.1.4-1.6 1.6.4.9.1 2.3-.5 3-.9 1.1-.7 1.4 1 1.4 1.1 0 2.1.4 2.1 1 0 .5-.8 1-1.8 1s-2.4.6-3 1.2c-1 1-1.2.7-1-1.2.2-1.6-.3-2.5-1.4-2.8-1.1-.2-1.8.3-1.8 1.2 0 .9.4 1.6.9 1.6s.7.9.4 2.1c-.4 1.5-.8 1.7-1.4.8-.4-.7-.6-1.6-.3-2 1.1-1.9-4.3-1.2-6.5.8-1.3 1.3-3.5 2.3-4.7 2.3-1.4 0-2.4.6-2.4 1.4 0 3.2-8.9 3.7-9.7.6-.3-1.1-.9-1.7-1.5-1.4-.5.3-1.5.1-2.2-.5-1.1-.9-1.8-.8-2.9.4-.9.8-2.2 1.5-3 1.5-.8 0-1.9.6-2.5 1.3-.6.7-2.3 1.4-3.9 1.5-4.4.4-18.7-2.6-30.8-6.3-6-1.9-13.1-3.9-15.8-4.6-2.6-.6-5-1.5-5.3-2-.3-.5-1.6-.9-3-.9-1.3 0-3.4-1-4.6-2.2-1.4-1.4-2.3-1.8-2.6-1-.2.7-.8 1.2-1.3 1.2-.6 0-.7-.5-.3-1.2.5-.7.2-.9-.8-.5-.9.3-2.4 0-3.4-.7-.9-.7-2.6-1.1-3.6-.8-1 .2-2.4 0-3.1-.5-1.7-1.4-5.7-2.3-5.7-1.3 0 .5.6 1.1 1.3 1.3.6.3.2.6-1.1.6-1.2.1-2.5-.5-2.8-1.3-.3-.9-2.3-1.3-6.4-1.2-6.3.1-6.6.8-1 2.5 3.1.9 2.7 1-3 .6-20.7-1.4-48.5-1.7-59.5-.6-11.9 1.2-43.8 5.6-50.5 7-3.5.7-3.5.7-4.1 7.1-.4 3.6-.7 9.7-.8 13.6l-.1 7.2 3.3 1.3c10.8 4.3 12.9 8.2 16.8 30.9 5.3 31.5 9.4 41.1 20.6 47.7 10 5.8 30.5 9.2 60.9 10 29.1.8 43.7-1.2 53.9-7.2 5.5-3.1 14.6-13.1 20.7-22.4 4.4-6.8 15.6-28.7 17.2-33.8.4-1.2 2.7-3.7 5.1-5.7 3.3-2.7 5.4-3.6 8.5-3.8 2.2-.1 4.6.4 5.3 1.1.7.7 1.3 5.2 1.5 11.9.2 10.1.8 28.3 1.3 40 .1 3.3.7 5.6 1.5 5.9.7.2 1 1.1.7 1.9-.3.8-.1 1.4.3 1.4.9 0 1.2 2.7 1.3 10.8.1 2.3.6 5.2 1.3 6.3 1 1.7 1 2.3.1 2.6-1.6.6-1.7 2.4-.1 2.1 1.5-.4 2.2 5.4 2.2 17.7 0 12.8-2.3 18.5-9.4 24.2-3.5 2.7-4.9 4.5-5 6.3-.1 2.3-.2 2.4-1.4.7-.7-.9-1.6-1.7-2-1.7-1 0 .5 5.3 2.1 7.2.8.9 1.2 2.3.8 3-.3.7.5-.1 1.9-1.7 1.9-2.2 2.6-2.5 2.6-1.3 0 .9-.6 1.8-1.2 2.1-1 .3-.9.8.2 2.2.8 1 1 1.6.4 1.2-.7-.4-1.7 0-2.4.8-1.1 1.3-.7 1.5 2.6 1.5 3.2 0 4.1.5 5.1 2.5 1.9 4.2-.9 6.6-8.6 7.1-3.5.2-6.4.5-6.5.6-.1.2-.9 1.8-1.9 3.6-1 1.7-1.6 3.6-1.3 4.1.8 1.2-3.5 4.7-6.6 5.5-3.6.8-3.7 4-.2 7.3 2.3 2.1 3.4 2.4 7.8 2 6.5-.7 11.3 1.2 12.2 4.8.9 3.6-.1 12.8-1.8 15.4-.7 1.1-2 2.1-2.8 2.1-.8 0-2.4.8-3.5 1.7-1.9 1.5-1.8 1.5 1.6 1l3.7-.5-1.5 2.9c-1.2 2.3-2 2.8-4 2.5-2.4-.5-2.5-.3-1.9 2.8.4 2.1.1 4.4-.9 6.2-.8 1.6-1.5 4.2-1.6 5.9-.1 2.7-.2 2.7-.9-.8-.4-2.1-.6-5.4-.4-7.4.2-2.7-.1-3.3-1.3-2.9-.8.3-1.6.6-1.8.6-.2 0 .1 1.5.6 3.2 1.2 4.3 1.2 4.8-.5 4.8-.8 0-1.6.7-2 1.5-.6 1.6 3.9 4.5 7.8 4.9 3.7.4 6.6 2.5 5.9 4.3-.5 1.2-.2 1.5 1 1 1.5-.6 1.6-.3.7 1.3-.9 1.6-.8 1.8.5 1.4.8-.4 1.5-.1 1.5.5s-.4 1.1-.8 1.1c-.5 0-.9 1.4-1 3 0 2.3.3 3 1.6 2.8 2-.4 3 3.8 1.3 5.5-.8.8-1.1.8-1.1-.1 0-.7-.4-1.2-.8-1.2-.5 0-.9.7-.9 1.5s.6 1.5 1.4 1.5c.7 0 1.3.4 1.3 1 0 .5-.6 1-1.2 1-.7 0 .1.8 1.7 1.9 2.3 1.4 3.3 1.6 4.4.7 1.2-.9 1.3-.8.8.7-.4 1.1-.1 2.5.8 3.4 1.3 1.2 1.3 1.8.3 3.1-1.2 1.3-1.3 1.3-1.6-.2-.2-1.1-.9-1.5-1.9-1.2-.8.3-1.9.6-2.4.6-1.8 0-.9 2.9 1.1 3.5 1.1.3 2 1.1 2 1.7 0 .6 1.2.8 3 .5 1.7-.4 3-.2 3 .3 0 .6-.4 1-1 1-1.7 0-1.1 1.8.8 2.3 1.3.4 1.1.5-.5.6-2.7.1-3 2.6-.6 4 1.2.6 2 .5 2.9-.7.9-1.3 1.2-1.1 1.6 1.6.2 1.8.1 3.2-.4 3.2-.4 0-.7.3-.7.7.3 2-.2 3.3-1.3 3.1-.9-.2-1.2 1.6-1.2 6.4.1 3.7-.2 6.5-.6 6.3-.4-.3-1 .4-1.3 1.5-.3 1.1-.1 2 .4 2 1.5 0 1 4.8-.7 6.5-1 .9-1.7 3-1.8 4.6-.1 1.6-.6 2.9-1.2 2.9-.7 0-1.4.7-1.8 1.5-.3.8-1.1 1.2-1.8 1-.8-.3-1.4.4-1.4 2-.3 4.1-2.2 5.5-7.5 5.5-4.7 0-4.9-.1-4.9-2.8-.1-2.6-.1-2.6-1.5-.8-.8 1-1.2 2.3-.9 2.7.3.5-.5.9-1.6.9-1.7 0-2.1-.4-1.6-1.7.6-1.4.3-1.4-1.6.3-1.8 1.5-2 1.5-.9.1.7-.9 1-1.7.6-1.7s.4-.9 1.8-2c3.2-2.6 4.3-6.8 2.3-8.9-1.3-1.2-1.8-1.3-2.8-.3-1 1-1 1.5.1 2.1.7.5 1 1.4.7 2-1.1 1.7-2.4 1.3-3.2-1.1-1.4-4.5-2.6-4.7-6.1-1-3.3 3.5-4.6 6.5-1.8 4.2 1.2-1 1.5-1 1.5.4 0 1-.8 1.6-2.3 1.6-1.2 0-3.1 1.1-4.1 2.5-1 1.3-2.2 2.2-2.7 1.9-.5-.3-.9-.1-.9.5s2.9.7 7.7.4c5-.4 7.4-.3 7 .4-.4.6-4.1 1.1-8.4 1.2-10.1.3-10.3.3-9.8 1.2.3.3-.3 1.3-1.2 2-1.2 1-1.4 1-.9.1 1-1.7-.5-1.5-3.1.6-1.9 1.5-2 1.9-.7 3 .8.7 1.4.8 1.4.2 0-1.5 2.7-1.2 3.3.4.4 1 .1 1.3-.7 1-.8-.3-2.1.5-3 1.8-1 1.3-1.2 2.4-.6 2.6.5.2 1 .8 1 1.3 0 1.2-3.2.8-4.1-.5-.4-.4-1-.3-1.3.3-.4.6-.2 1.1.3 1.1.6 0 1.1.9 1.1 1.9 0 1.1.4 2.3 1 2.6 1.6 1 1.2 2.8-.5 2.1-1-.4-1.5.1-1.5 1.4 0 1.1-.6 2-1.4 2-.8 0-1.8.5-2.2 1.1-.5.8.1 1 1.8.6 2-.5 2.7-.3 3.1 1.3.3 1.1.1 2.3-.4 2.6-.5.3-.9-.2-.9-1 0-2.1-1.6-2.1-2.4 0-.8 2.2-.8 2.6.4 1.9 1.4-.9 1.3.8-.2 2.3-.9.9-.9 1.2.2 1.2 1 0 1.5 1.1 1.5 3.5 0 2.1-.5 3.5-1.2 3.5-1.8 0-1.6 1.7.3 2.4 1.3.5 1.4.9.4 2.1-.6.8-.9 2.3-.5 3.5.5 1.5 0 2.6-1.9 4.1-1.5 1.2-2.3 2.6-1.9 3.4.3 1.1.1 1.3-1 .9-.8-.3-2.4.4-3.5 1.6-1.3 1.4-2.2 1.8-2.7 1.1-.3-.6-2.1-1-3.8-1l-3.2.2 3.5.7c3.1.7 3.2.8.8.9-2.1.1-2.6.5-2.1 1.7.5 1.4.1 1.6-2 1.2-1.8-.3-2.7-.1-2.7.7 0 .7-1.3 1.8-3 2.4-1.8.6-3 .6-3 0 0-.5-.7-.9-1.5-.9s-1.5.7-1.5 1.5-.7 1.5-1.5 1.5-1.5-.5-1.5-1.1c0-.8-.4-.8-1.3-.2-.6.5-3.9.9-7.2.8-3.3-.2-5.1.1-4 .5 1.9.7 1.9.7-.2 1.8-2.9 1.6-3.6 1.5-2.9-.3.7-1.8-3.4-2.1-5.1-.4-.7.7-1.3.7-1.7.1-.3-.6-2-.7-3.8-.3-1.8.4-6.2.4-9.8.1-3.6-.4-8.6-.5-11.3-.2-3.6.4-5.2.1-6.7-1.3-1.1-1-2-1.5-2-1.1 0 .4-1.3-.2-2.9-1.3-1.6-1.2-3.4-2.1-4-2.1-.6 0-1.5-1-2.2-2.1-.9-1.7-1.3-1.9-2-.8-.6 1-.9 1.1-.9.1 0-.6-.6-1.2-1.2-1.2-.7 0-2.7-1.3-4.4-2.8-1.7-1.5-5.5-4.5-8.4-6.7-2.9-2.2-9.3-8.1-14.3-13-11.1-11-9.7-8.8 6.9 10.8 7.1 8.3 16.3 19.2 20.4 24.2 4.1 5 11 13.4 15.3 18.6 4.3 5.2 8.5 10.2 9.3 11.2.8.9 1.4 2.1 1.4 2.6s.3 1.1.8 1.3c1.6.7 10.1 12.1 9.6 12.9-.3.5.2.9 1 .9s1.8.4 2.1 1c.3.6-.1.7-1 .4-1.1-.5-1.4-.2-.9 1 .3.9 1.2 1.6 1.9 1.6s1.6.7 1.9 1.6c.4.9.9 1.4 1.3 1.1.8-.8 6.4 6.3 5.8 7.3-.3.4.4 1 1.6 1.3 1.1.3 1.9 1.1 1.7 1.9-.1.7.2 1.4.7 1.5.6.1 1.3 1.2 1.6 2.5.3 1.3 1.1 2.2 1.8 2 .7-.1 1 .2.7.7-.3.5.1 1.4.9 2.1.8.7 1.5 1.8 1.5 2.5s.7 1.5 1.5 1.9c.8.3 1.5 1.7 1.5 3.1 0 1.5.4 2.4.9 2 .6-.3 1.5.5 2.2 1.7.7 1.3 1.7 2.6 2.3 3 .7.5.6.8-.4.8s-1.1.3-.4.8c.6.4 1.9 2.3 2.9 4.2 1 1.9 2.7 4.1 3.7 4.9 1.1.7 1.7 1.9 1.3 2.8-.3.9.2 2.4 1.1 3.4 1.5 1.6 1.7 1.6 4.7.1 1.8-1 3.5-2.2 3.9-2.7.4-.6.8-.7.9-.3.4 2 .5 2.4 1.7 4.5 1.5 2.6.5 3.5-4.4 3.6-1.9.1-3.4.5-3.4.9s-.7.8-1.5.8-1.5.6-1.5 1.2c0 1-.2 1-.8.1-.5-.8-1.3-.9-2.2-.3-1.1.7-.8 1.1 1.5 2 1.7.6 4.6 1.7 6.5 2.5 3.7 1.5 11.8 3.4 18.7 4.2 3.5.4 4.4.2 5-1.3.4-1.1-.1-2.3-1.6-3.6-1.3-1-1.8-1.8-1.2-1.8.5 0 3 2 5.5 4.4 5.8 5.6 10.6 7.8 16.7 7.8 2.7-.1 4.9.3 4.9.9 0 .5-1.1.9-2.5.9-1.6 0-2.5.6-2.5 1.5 0 .8-.4 1.5-1 1.5-.5 0-1-.7-1-1.5 0-.9-.9-1.5-2.2-1.4-1.3 0-1.7.3-1 .6 1.7.7 1.5 2-.5 2.7-.9.4-2 .1-2.4-.5-.5-.9-7-1.5-10.5-.8-.5.1-1.1.1-1.4-.1-.3-.1-2.3-.4-4.5-.6-2.1-.3-4.4-.8-5-1.2-.5-.5-3.6-.8-6.7-.7-5.1 0-5.8-.2-6.3-2.3-.3-1.2-.1-3 .4-4 .8-1.3.2-2-2.7-3.4-2-1-4.1-1.7-4.6-1.8-.5 0-1.6-.8-2.5-1.9-.9-1-2.7-2.1-4.1-2.5-2-.6-2.2-.5-1 .4 1.2 1 1.1 1-.5.4-1.1-.5-7.1-.9-13.4-1.1-6.3-.1-14.4-.5-18-.9-15.4-1.5-35.8-1-45.6 1-6.1 1.3-23.7 1.8-23 .7.4-.7-.4-1.1-2.2-1-2.5 0-2.6.1-.8 1 1.7.8 1.7.9-.5.4-1.4-.3-7.2-.8-13-1.1-11.6-.7-20.6-2.6-20.2-4.3.1-.6-.2-1.1-.8-1.1-.5 0-1.4-1-2.1-2.1-.9-1.7-.8-2.3.2-3 1.8-1.1 0-2.9-3-3.2-1.6-.1-2-.6-1.5-2.2.6-2 .6-2-1.1 0-1.4 1.7-1.6 1.8-1.1.2.6-1.7 0-2.7-3.5-6.5-.8-.9-2.1-4.4-2.8-7.6-.9-4.2-1.6-5.5-2.2-4.5-.7.9-.8.5-.3-1.3.4-1.8.2-2.8-.5-2.8-.6 0-1.1-1.3-1.1-2.9 0-1.7-.5-3.3-1-3.6-.6-.4-.8-1.1-.5-1.6.4-.5.2-.9-.4-.9-.5 0-1.3-.9-1.6-2-.4-1.1-1.1-1.8-1.6-1.5-.5.4-.9-.2-.9-1.2 0-2.1-6-11.2-10.7-16.3-1.8-1.9-3.3-4-3.3-4.7 0-.7-.6-1.6-1.3-2-2.2-1.4-6.7-8.1-6.7-10 0-2.7-2.9-6.2-3.7-4.5-.6 1.5-.8 1.2-5.5-7.6-1.5-2.7-3.3-5.6-4-6.3-3.5-3.7-17.3-30.5-28.9-56.1-2.9-6.5-5.4-11.6-5.5-11.5-.2.2 1 3.9 2.7 8.3 1.7 4.3 5.5 14.6 8.5 22.9 10.4 28.3 20.8 46.8 38.7 68.8 2.6 3.2 4.7 6.6 4.7 7.7 0 1 1.3 3.8 2.8 6.2 1.6 2.4 5.5 9.5 8.8 15.8 3.2 6.3 6.1 11.7 6.4 12 .9.8 5.4 8.9 10 18 2.4 4.7 5.3 9.8 6.4 11.4 1.4 2.1 1.6 3.1.8 3.4-.7.2-1.2.8-1.2 1.3 0 .4.6.6 1.3.3 1.1-.4 3.1 2.7 6.5 9.9.2.4-.3.4-1.2.1-.9-.3-1.4-.9-1.2-1.3.2-.3-.7-2.2-2-4.1-1.3-1.9-2.4-2.8-2.5-2 0 .8-.5.4-1-.9-.5-1.4-.7-3.1-.4-3.8.2-.8.1-1.2-.4-.8-.5.3-2-.9-3.2-2.7-1.9-2.5-2-3-.6-2.5 2 .8 2.1-.2.2-2.7-.7-1-1.8-1.5-2.4-1.1-.7.3-.8 0-.5-.9.4-1 .1-1.6-.7-1.6-1.1 0-1.1-.3.1-1 1.3-.9 1.3-1.2-.2-2.1-1-.5-1.8-1.9-1.8-3 0-1-1.1-2.9-2.5-4.1-1.4-1.2-2.3-2.8-2.1-3.4.3-.7-.2-1.5-1-1.8-.9-.3-1.3-1-.9-1.5.3-.6-.2-1.4-1-1.8-.8-.5-1.7-2-2-3.4-.7-3.6-6.7-15.2-8.8-16.8-1-.7-1.6-1.9-1.3-2.6.2-.7-.2-2.1-1-3.2-.9-1-1.3-1.2-.9-.6.3.7.1 1.3-.6 1.3s-.9.8-.5 2.3c.4 1.2 1.1 4.7 1.7 7.7 1.4 7.7 6 24.2 11 39.3 1.6 4.9 2.6 9.3 2.3 9.9-.4.6-.3.8.3.5 1-.6 4.9 9 4 9.9-.3.3.4 1.5 1.5 2.6 1.4 1.4 1.7 2.3 1 3-1.1 1.1-.5 4.1.7 3.4.3-.2.7.8.8 2.3.2 3 8 20.4 9.4 20.9.5.2.6.8.3 1.3-.3.6.5 3.1 1.7 5.7 1.3 2.6 2.3 4.9 2.4 5.2.5 2.2 1.9 5.7 2.8 6.9.6.7 1.2 2 1.3 2.8.2.8.5 1.8.9 2.1.4.4 18 .7 39.3.7 29.9 0 38.6-.3 39-1.3.2-.6.8-1.2 1.4-1.2.6 0 .8.7.4 1.5-.5 1.3 33.5 1.5 302.4 1.5h303V0H0v499.5zM462 74c-7.1.9-10.9 1.9-15.5 4.4-1.6.9-3.5 1.6-4.2 1.6-.6 0-3.7 2.3-6.7 5.1-6.5 5.9-7.7 5.3-1.3-.7 8.3-8 16.9-11.3 28.7-11.2l5.5.1-6.5.7zm38.3 3.4c3.1 1.5 5.7 3.2 5.7 3.7 0 1.2-1.3 1.2-2.5 0-1.9-1.8-13.5-5.1-17.7-5.1h-4.3l5.4 2.5c3 1.4 5.1 2.8 4.8 3.2-1.1 1.1-10.6-4-11.1-6-.4-1.8 0-1.9 6.7-1.5 5 .3 8.9 1.3 13 3.2zm21.3 1.6c3.5 1.7 6.9 3.6 7.6 4.3.7.7 2.9 2.4 4.9 3.8 5 3.4 14.3 14.3 17.9 21 3.4 6.5 4 9.1.9 3.9-1.2-1.9-3.7-5.2-5.5-7.3-1.9-2-3.4-4.1-3.4-4.5 0-.5-2.9-3.8-6.4-7.4-4.6-4.7-8.8-7.7-15-10.9-4.7-2.4-8.6-4.7-8.6-5.2 0-1.1.8-.9 7.6 2.3zm-40.2.9c2.3 1.1 5 3 6.1 4.2l2 2.3-2.6-1.6c-7.1-4.5-23.4-6.3-30.4-3.4-1.9.8-3.5 1.1-3.5.5 0-.5.7-.9 1.5-.9s1.5-.4 1.5-.8c0-1.4 10.2-3 15.8-2.6 3 .3 7.3 1.3 9.6 2.3zM443 81.3c0 .2-1.5 1.6-3.2 3.3l-3.3 2.9 2.9-3.3c2.8-3 3.6-3.7 3.6-2.9zm57.6 2.8c3 1.7 5.4 3.7 5.4 4.5 0 1.3-.3 1.2-1.7-.2-1-.9-3.7-2.6-6-3.6-2.4-1-4.3-2.3-4.3-2.8 0-1.5.8-1.2 6.6 2.1zm10.9.9c1 1.1 1.4 2 .9 2-1.2-.1-4.4-2.5-4.4-3.4 0-1.2 1.7-.6 3.5 1.4zm-62.5-.7c0 .2-1 1.2-2.2 2.3l-2.3 1.9 1.9-2.3c1.8-2.1 2.6-2.7 2.6-1.9zm76.1 6.9c3.1 4.3 1.7 3.4-2.1-1.5-1.9-2.3-2.6-3.6-1.7-2.8 1 .8 2.7 2.7 3.8 4.3zm-32.4-2c2.7 3.1 7.3 10 7.3 11.2 0 .5-1.3-1-3-3.2-1.6-2.3-3-4.5-3-4.9 0-.4-1.2-1.8-2.7-3-1.4-1.3-2.2-2.3-1.6-2.3.5 0 1.9 1 3 2.2zm-52.3 3.3c5.5.7 17.8 4.9 21.3 7.2 4.1 2.7 2.4 3.4-2 .9-2.3-1.4-6.3-3.3-8.7-4.2-5.1-1.8-21.6-2.8-22.5-1.4-.4.6-1.7.7-3 .4-1.3-.3-4.2.2-6.7 1.4-5.2 2.2-14.4 9.1-14 10.4.1.5-.9 1.2-2.2 1.7-1.3.5-2.6 1.7-3 2.6-.3.9-1.1 1.3-1.7.9-.8-.4-.9-.3-.5.4s-.5 2.4-1.9 3.9c-1.4 1.6-4 5.2-5.7 8-4 6.6-6 7-2.3.5 6.6-11.5 21.2-27.3 27.9-30.2 8.5-3.8 12.5-4.2 25-2.5zm69.8 1.2c.7 1.6 1.8 3.6 2.7 4.6.8.9 1.2 2 .8 2.3-.3.3-1.4-.7-2.3-2.3-1-1.5-2.1-3-2.4-3.3-.4-.3-.9-1.3-1.3-2.3-1.1-2.8 1.2-1.9 2.5 1zm53.1 2.9c3.6 1.4 5 1.6 5.5.7.5-.8 2.2 0 5.6 2.6 2.6 2.1 4.8 4.1 4.7 4.5-.1.3 1.4 1.9 3.1 3.6 1.8 1.6 2.7 3 2 3-.7 0-1 .6-.7 1.2.4.7-.9-.3-2.7-2.3-1.9-1.9-5.6-4.8-8.1-6.5-2.6-1.6-4.7-3.3-4.7-3.7 0-.5-.3-.6-.8-.4-.4.3-3.4-.8-6.7-2.4-6.4-3.2-5.1-3.3 2.8-.3zm21.9 2.9c.5 1.1-.2.6-1.6-1-1.4-1.7-2.5-3.5-2.5-4 0-1.1 2.5 2 4.1 5zm-80.1 5.8c1.2 3.2 1.9 6 1.6 6.3-.3.3-1.1-1.2-1.7-3.3-.7-2.1-2.4-6.1-3.7-8.8-2.1-4.3-2.1-4.6-.4-2.5 1.1 1.4 3 5.1 4.2 8.3zM529 97c.6 1.1.8 2 .6 2-.3 0-1-.9-1.6-2-.6-1.1-.8-2-.6-2 .3 0 1 .9 1.6 2zm38.7-1.4c-.3.3-1.2.4-1.9.1-.8-.3-.5-.6.6-.6 1.1-.1 1.7.2 1.3.5zm-29 3.6c-.3.7-.5.2-.5-1.2s.2-1.9.5-1.3c.2.7.2 1.9 0 2.5zM439.5 98c1.4.6.3.9-4 .9-3.3.1-7.8.4-10 .8-2.2.3-3.7.2-3.3-.2.4-.4 3.3-1.1 6.5-1.5 7.8-1 8.5-1 10.8 0zm-19.8 2.1c-.9.6-1.5 1.4-1.2 2 .8 1.3 12.7 1 20.5-.5 8.5-1.6 14.4-.6 23.2 3.9 3.9 2 7.3 3.3 7.6 3 .3-.2 1.6 1 2.9 2.8 1.3 1.7 2.8 3.2 3.4 3.2.5 0 1.5 1 2.2 2.3.7 1.2 3.9 6.1 7.3 11 6 8.7 9.6 15.5 5.4 10.2-1.1-1.4-2.2-3.3-2.6-4.3-.3-1.1-1.2-1.6-2-1.3-.8.3-1.4-.1-1.4-.9s-.7-1.5-1.6-1.5c-.8 0-1.3-.4-1-.9.3-.5-.3-2-1.4-3.2l-1.9-2.4-.1 2.8c0 1.6-.4 2.6-1 2.2-.5-.3-1-1.8-1-3.3 0-3.5-2.4-6.9-8.2-12-9.2-7.9-24-10.8-38.9-7.7-8.8 1.9-9.9 1.8-7.4-.1 1.9-1.5 1.8-1.6-2-1.1-2.2.3-5.6.8-7.5 1.1l-3.5.6 3.3-1.5c3.3-1.5 3.6-3.8.4-2.9-.9.2-.3-.2 1.3-1 1.7-.8 3.9-1.5 5-1.5 1.9 0 1.9 0 .2 1zm109 10.2c-.3.7-1.4-1-2.6-3.6-2.8-6.5-2.6-7.1.5-1.9 1.4 2.3 2.3 4.8 2.1 5.5zm-26.9-5.8c-.3.3-.9-.2-1.2-1.2-.6-1.4-.5-1.5.5-.6.7.7 1 1.5.7 1.8zm70.5 5.2c5.3 5.2 6.3 7.6 1.6 4.1-1.6-1.3-4.2-3-5.7-3.8-2.7-1.6-4-5-1.8-5 .6 0 3.3 2.1 5.9 4.7zm-173.9-2.5c-.5.7-1.2 1.7-1.6 2.3-1.2 1.4-7.5 10.5-9.8 14-1.1 1.6-2 2.5-2 1.9 0-1.7 6.9-12.7 10.3-16.2 3.2-3.3 4.3-4.1 3.1-2zm39.1.6c-.3.3-1.1 0-1.8-.7-.9-1-.8-1.1.6-.5 1 .3 1.5.9 1.2 1.2zm9-1.2c1.3.5 1.4.8.3 1.5-.9.6-.2.9 2 .9 4.9 0 21.9 9.5 23 12.9.3.9 0 1.1-.9.6-1.1-.6-1.2-.5-.1.6 1.8 1.9 1.5 2.8-.9 2.2-1.1-.3-2.6-1.4-3.2-2.5-1.7-2.7-9.2-7.3-16.2-9.9-3.3-1.2-6.2-2.5-6.5-2.9-.3-.4-1.2-1-2-1.3-1-.3-.6-.6 1-.7 2.3-.1 2.3-.2.5-1-1.6-.7-1.7-.9-.3-.9.9-.1 2.4.2 3.3.5zm62.2 1.6c-.3.8-.6.5-.6-.6-.1-1.1.2-1.7.5-1.3.3.3.4 1.2.1 1.9zm53.3.9c0 .4-.7.6-1.5.3-.8-.4-1.5-1-1.5-1.5 0-.4.7-.6 1.5-.3.8.4 1.5 1 1.5 1.5zm-24.7 6.4l.6 3-1.3-3c-.8-1.7-1.6-4.1-2-5.5l-.7-2.5 1.4 2.5c.8 1.4 1.7 3.8 2 5.5zm-32.9-5c.3.8.1 1.5-.4 1.5-.6 0-1-.7-1-1.5s.2-1.5.4-1.5.6.7 1 1.5zm-94.4-.2c0 .2-1 1.2-2.1 2.3-2.2 1.9-2.2 1.9-1-.4 1-1.8 3.1-3.1 3.1-1.9zm166.9 9.3c.2.2.2.7-.2 1-.6.6-13.7-9.2-13.7-10.2 0-.4 12.2 7.7 13.9 9.2zm-63.1-5.6c-.7 1-1.4 1.7-1.7 1.5-.4-.4 1.8-3.5 2.5-3.5.2 0-.1.9-.8 2zm-63.9 1.6c2.8 1.5 5.6 3.2 6.1 3.9.6.7-1.9-.2-5.5-2.2-5.7-3-7.5-4.3-6.1-4.3.2 0 2.7 1.2 5.5 2.6zm-1.5 1.8c6 2.7 14.2 9.8 13.3 11.3-.4.6-2.5-.7-5.2-3.3-2.4-2.4-4.9-4.4-5.4-4.4-.4 0-3-1-5.7-2.2-2.7-1.2-6.5-2.3-8.4-2.3-1.9-.1-4.4-.3-5.5-.4-1.8-.3-1.7-.4.5-1.2 3.7-1.2 10.7-.2 16.4 2.5zM400 117c-2.4 1.5-3.7 1.1-1.6-.5 1.1-.8 2.2-1.2 2.5-.9.3.3-.1.9-.9 1.4zm27.5-1c-.3.5-1 1-1.6 1-.5 0-.9-.5-.9-1 0-.6.7-1 1.6-1 .8 0 1.2.4.9 1zm-6.8.6c-.3.3-1.2.4-1.9.1-.8-.3-.5-.6.6-.6 1.1-.1 1.7.2 1.3.5zm-8.2 3.4c.3.5-.1 1-1 1s-1.3-.5-1-1c.3-.6.8-1 1-1 .2 0 .7.4 1 1zm21 1.4c7.6 2 11.7 4.1 15.1 7.4 3.2 3.3 10 15 9.1 15.8-.3.3-2-2.3-3.9-5.8-1.8-3.4-4.2-6.7-5.3-7.3-1.1-.6-3.1-1.8-4.5-2.7-2.8-1.9-11.1-4.3-18.5-5.4-2.7-.4-4.2-.9-3.2-1.1.9-.3 1.7-.9 1.7-1.4 0-1.3 3.7-1.1 9.5.5zm105.2 1.8c-.3.8-.6.5-.6-.6-.1-1.1.2-1.7.5-1.3.3.3.4 1.2.1 1.9zm-79.3 8.5c1.2 2.8-1.4 1.1-4.6-3l-3.3-4.2 3.7 3c2 1.6 3.9 3.6 4.2 4.2zm80.3-3.5c-.3.8-.6.5-.6-.6-.1-1.1.2-1.7.5-1.3.3.3.4 1.2.1 1.9zM391.5 130c.3.6-.1.7-.9.4-1.8-.7-2.1-1.4-.7-1.4.6 0 1.3.4 1.6 1zm50.3.9c.3.8-.1 1.2-.9.9-.7-.2-1.5-1-1.7-1.7-.3-.8.1-1.2.9-.9.7.2 1.5 1 1.7 1.7zm84.7 7.6c4.3 7.6 6.5 13.3 2.7 7-4.1-6.7-9.4-16.9-8.4-16 .6.6 3.2 4.6 5.7 9zm-72-7.5c.3.5.1 1-.4 1-.6 0-1.1-.5-1.1-1 0-.6.2-1 .4-1 .3 0 .8.4 1.1 1zm-65.5.4c0 .2-.7.7-1.6 1-.8.3-1.2.2-.9-.4.6-1 2.5-1.4 2.5-.6zm76.6 2.7c2.2 4.4 6.7 29.6 5 27.8-.3-.3-1.1-4.7-1.9-10-1.2-7.9-2.9-13.1-6.5-20.2-.2-.4.1-.7.7-.7s1.8 1.4 2.7 3.1zm18 3.7c-.9.8-1.3 0-1.9-3.8l-.6-3.5 1.5 3.4c.8 1.8 1.3 3.6 1 3.9zm68.9-3.8c.9 1.8 1.1 3 .5 3-.9 0-3-4-3-5.6 0-1.2 1.1-.1 2.5 2.6zm-94.6 2.4c-.3.3-1.1-.5-1.8-1.7-1.3-2.1-1.2-2.1.5-.5 1 1 1.6 2 1.3 2.2zm13.8 3.2c1.4 3 2.3 5.7 2.1 6-.3.2-1.6-2.3-3.1-5.6-3.2-7.6-2.5-7.9 1-.4zm-6.7 2.7c1.3 3.6 1.9 7.9 1.9 11.9l-.2 6.3-.7-7c-.3-3.9-1.6-9.2-2.8-11.9-2.4-5.3-2.9-7.7-1.2-6 .6.6 1.9 3.6 3 6.7zm9.7-4.1c-.3.8-.6.5-.6-.6-.1-1.1.2-1.7.5-1.3.3.3.4 1.2.1 1.9zm81.8 2.9c.2 2.4 2 8.9 3.9 14.4s3.7 12.3 4 15c.5 4.6.4 4.4-1.3-2-1-3.9-3.7-12.1-5.9-18.3-2.3-6.2-3.7-11-3.2-10.7.6.4 1-.4 1-1.6 0-3.7 1.1-1.4 1.5 3.2zm-74 2.1c.8 2.8 1.3 5.4 1 5.6-.2.3-.6-.1-.9-.9-.2-.8-1.1-3.5-1.9-6.1-.8-2.6-1-4.5-.6-4.2.5.3 1.5 2.8 2.4 5.6zm-19.3 5c.2 2.6-.1 3.3-1.7 3.6-1.7.4-1.8.2-.6-1.2 1.3-1.5 1.2-2.4-.4-9.6-.5-1.9-.3-1.7.9.7.8 1.8 1.6 4.7 1.8 6.5zm-25.2.4c1.1 3.7 2 8 1.9 9.8 0 2-.7.5-1.8-4.4-.9-4.1-2.2-8.5-2.9-9.7-1.5-2.6-1.5-3.6-.2-2.8.5.3 1.9 3.5 3 7.1zm48-5.5c0 .6-.4.7-1 .4-.5-.3-1-1.1-1-1.6 0-.6.5-.7 1-.4.6.3 1 1.1 1 1.6zm101.3 3.6c.9 2.4 1.4 4.3 1.1 4.3-.6 0-3.4-6.5-3.4-8.1 0-1.7.4-1 2.3 3.8zm-173.9-.3c6.6 4 8.6 6 2.6 2.7-3.1-1.7-8.3-3.7-11.5-4.6l-6-1.5 5.4.5c3.1.2 7 1.4 9.5 2.9zM394 148c0 2.1 3.3 2.9 4.5 1 .3-.6 1.1-1 1.7-1 .7 0 .6.6-.2 1.5-1 1.2-.9 1.5.6 1.5 1.1 0 3 .9 4.4 2l2.5 2-3.7-1.5c-4.6-1.8-10.8-2-10.8-.3 0 1-.3.9-.9-.1-.5-.8-1.1-.9-1.5-.3-.7 1.2 2.9 2.6 4.3 1.7.6-.3 1.8.1 2.8.9 1 .9 3.3 2.6 5.2 3.8 1.9 1.3 3.6 3 3.8 3.8.4 1.2.3 1.3-.5.1-.6-.8-1.6-1.2-2.4-.9-.8.3-2.2 0-3.3-.8-3.6-2.7-3.9-1.4-.4 2.3l3.4 3.8-3.7-3.4c-2-1.9-3.6-3.9-3.5-4.5.1-.6-1.5-1.2-3.5-1.4-2.1-.2-3.8-.9-3.8-1.5-.1-3.2-1.7-3.9-4.9-2.3-4.1 2.1-3.9 1.4.6-3 2.5-2.5 3.8-3.2 4.4-2.3 1 1.7 4.2.2 3.5-1.6-.3-.8-.1-1.5.4-1.5.6 0 1 .9 1 2zm11-1.6c0 .2-.7.7-1.6 1-.8.3-1.2.2-.9-.4.6-1 2.5-1.4 2.5-.6zm156 2.9c0 .5-.4.5-1 .2-.5-.3-1-1.4-1-2.3 0-1.5.2-1.5 1-.2.5.8 1 1.9 1 2.3zm-22 2.1c0 2.6-.6 1.8-1.4-1.9-.5-2.2-.4-2.6.4-1.5.5.8 1 2.4 1 3.4zm-175 .1c-.7.8-1.7 1.5-2.2 1.5-.6 0-.5-.7.2-1.5s1.7-1.5 2.2-1.5c.6 0 .5.7-.2 1.5zm121.5 15.3c-1 1-3.5-6.3-4-11.5l-.5-5.8 2.4 8.5c1.4 4.6 2.3 8.6 2.1 8.8zm96-7.3c1.9 3.7 2.8 6.2 2 5.5-.9-.7-2.4-3.1-3.5-5.4-1.2-2.4-1.8-3.1-1.6-1.7.5 2.3.4 2.3-1.2.7-1.3-1.3-1.4-1.8-.4-2.5.8-.4 1-1.5.6-2.7-1.3-3.6.7-.7 4.1 6.1zm-216.5-6c0 .8-11.1 5.7-11.7 5.2-.6-.6 4.9-3.6 8.7-4.8 1.4-.4 2.6-.8 2.8-.8.1-.1.2.1.2.4zm198.4 1.1c.3.8.2 1.2-.4.9-.6-.3-1-1-1-1.6 0-1.4.7-1.1 1.4.7zm-111.7 1.6c-.3.8-.6.5-.6-.6-.1-1.1.2-1.7.5-1.3.3.3.4 1.2.1 1.9zm12.5.7c.2 1.7.1 2.8-.4 2.5-.8-.5-1.2-5.4-.4-5.4.2 0 .6 1.3.8 2.9zm107.7 9.8c-.1 8.1-.3 10.1-1 7.8-.8-2.7-.2-18.5.7-18.5.2 0 .4 4.8.3 10.7zm-184.6-8c-.3 1-1 2.3-1.4 2.9-.5.6-.6 1.3-.4 1.6.9.9-4.6 4-6 3.4-.8-.3-1.6-.2-1.8.2-.2.4-.2 0 0-.8.3-.8.7-2.7 1-4.3.3-1.5 1-2.7 1.4-2.7.5 0 .6 1.2.3 2.6-.6 2.4-.5 2.5 1.3 1.6 1.1-.6 2.6-1.9 3.4-2.8.9-1.2.9-1.5.2-1-.7.4-1.9.4-2.5 0-.9-.6-.5-1 1.2-1.5 3.8-1.1 4-1 3.3.8zm-29.1 1.5c-.7.7-1.2 2.1-1.2 3.2 0 1-.3 1.7-.6 1.3-1-1 .5-5.7 1.8-5.7.9 0 .9.3 0 1.2zm17.8.5c0 .9-.3 1.3-.7 1-.4-.4-1.3.7-2 2.4-1.2 3-3.2 3.6-2.1.7.3-.7.5-1.6.4-2-.1-.6 3.3-3.7 4.2-3.8.1 0 .2.7.2 1.7zm166.5 20c3.9 11.6 7.7 21.2 8.9 22.5 1.1 1.2 2 2.6 1.8 3.1-.1.5.2.6.6.3.5-.3 1.7.3 2.7 1.4 2 2.2.7 2.8-1.4.7-1-1-1.1-.8-.5.7.5 1.3.4 1.7-.3 1.3-.6-.4-1.3-.1-1.6.5-.7 1.9-4.1-6.4-10.8-25.8-5.1-15-8.2-26.9-6.7-25.4.3.3 3.6 9.6 7.3 20.7zm-76-16c-.9 5-2.9 8.2-2.1 3.4.3-1.8.6-4.2.6-5.2 0-1.1.5-1.9 1.1-1.9.8 0 .9 1.2.4 3.7zm-91 1.7c-1.3 1.9-1.3 2.5-.3 2.9.7.2 0 .8-1.5 1.2-4.2 1.1-4.5-.2-.6-3.5 4.2-3.6 4.4-3.6 2.4-.6zm60.9 3.8c-.6 4.3-.9 4.8-1.4 2.8l-.6-2.5-.8 2.9c-.4 1.5-.9 2.6-1.2 2.3-.3-.3.4-2.5 1.5-5 1.2-2.5 2.1-5.1 2.1-5.8 0-.7.3-1 .6-.6.3.3.3 3-.2 5.9zm34.3-4c-.3.8-.6.5-.6-.6-.1-1.1.2-1.7.5-1.3.3.3.4 1.2.1 1.9zm-37.8 1.9c-.6 1.3-2 4.6-3.1 7.4l-1.9 5 .7-4.4c.3-2.4 1.5-5.9 2.6-7.8 2.2-3.7 3.7-3.9 1.7-.2zm-64 7.3c-.9 1-1.1-.4-1.1-5.4 0-4.3.5-4.3 1.2 0 .4 2.5.4 4.9-.1 5.4zM587 169c.6 1.1.8 2 .6 2-.3 0-1-.9-1.6-2-.6-1.1-.8-2-.6-2 .3 0 1 .9 1.6 2zm-120.3 4.2c-.3.8-.6.5-.6-.6-.1-1.1.2-1.7.5-1.3.3.3.4 1.2.1 1.9zm-85.1.9c.1.5.2 1.8.3 2.9.1 2.6.9 2.5 4.6-.6l3-2.6-3.5.7c-2.6.5-3.1.3-2-.4 2-1.4 11-1.4 11 0 0 .5-.4.7-1 .4-1.3-.8-6 1.7-8.8 4.8-2.2 2.3-2.3 2.6-.8 6.1 2.4 5.8.7 4.1-2-1.9-2.2-5.1-3.4-12.8-1.6-11.1.4.4.8 1.2.8 1.7zm44.5 3c-1.2 1.9-2.1 3-2.1 2.6 0-1.4 3.1-6.9 3.6-6.4.3.3-.4 2-1.5 3.8zm143.8 10.3c-.6 3.3-.6 5.3.1 6 1.3 1.3 1.3 2.9 0 2.1-1.3-.8-9-11.2-9-12.1 0-.4 1.5 1 3.4 3.2l3.4 3.9.8-8c.7-7.4.8-7.7 1.5-4 .4 2.2.3 6.2-.2 8.9zm-197.5-9.8c.3.8.2 1.2-.4.9-.6-.3-1-1-1-1.6 0-1.4.7-1.1 1.4.7zm21.6 4c1.8 2.6 2.7 4.5 2 4.2-1.1-.3-6.7-8.8-5.8-8.8.3 0 2 2.1 3.8 4.6zm-33.1 12.1c0 2.5-.1 2.6-.9.8-1.2-2.7-1.2-3.5 0-3.5.6 0 1 1.2.9 2.7zm-3.9.3c0 .5-.5 1-1.1 1-.5 0-.7-.5-.4-1 .3-.6.8-1 1.1-1 .2 0 .4.4.4 1zm-6 2.5c-.7.9-1.5 1.3-1.8 1-.3-.2.1-1.1.8-2 .7-.9 1.5-1.3 1.8-1 .3.2-.1 1.1-.8 2zm4.5 3c-1.4 1.6-2.9 2.5-3.3 2.1-.4-.4.6-1.9 2.2-3.2 3.7-3.2 4.5-2.4 1.1 1.1zm217.7 9.7c1.1 2.4 1.5 3.8.9 3.3-.5-.6-1.7-2.8-2.7-5-2.1-5.2-.7-3.8 1.8 1.7zm-243.2 0c0 1.6-.3 1.9-1.1 1.1-.6-.6-.8-1.6-.5-2.2 1.1-1.7 1.6-1.3 1.6 1.1zm214.4-.6c.5 1.4.4 1.5-.9.4-1.7-1.4-1.9-2-.6-2 .5 0 1.2.7 1.5 1.6zm10.1 5.4c.3.5.1 1-.4 1-.6 0-1.1-.5-1.1-1 0-.6.2-1 .4-1 .3 0 .8.4 1.1 1zm-247.9 6.5c0 2.5-.3 3.1-.9 2-.7-1.3-.2-5.5.7-5.5.1 0 .2 1.6.2 3.5zm4.1-.3c-.3.8-.6.5-.6-.6-.1-1.1.2-1.7.5-1.3.3.3.4 1.2.1 1.9zm14.3.2c0 .3-.4.8-1 1.1-.5.3-1 .1-1-.4 0-.6.5-1.1 1-1.1.6 0 1 .2 1 .4zm-4.8 6.2c-1 2.3-1.8 3.1-2 2.1-.3-1.2 2.5-5.7 3.5-5.7.1 0-.5 1.6-1.5 3.6zm2.4 1.2c-1.8 1.6-1.8 1.6-.6-.6.6-1.3 1.4-2.1 1.8-1.8.3.4-.2 1.4-1.2 2.4zm-30.9 22.4c-.3.8-.6.5-.6-.6-.1-1.1.2-1.7.5-1.3.3.3.4 1.2.1 1.9zm-32.5 17c-.7.7-1.2.8-1.2.2 0-1.4 1.2-2.6 1.9-1.9.2.3-.1 1.1-.7 1.7zM300 272c0 .5-.2 1-.4 1-.3 0-.8-.5-1.1-1-.3-.6-.1-1 .4-1 .6 0 1.1.4 1.1 1zm293.1 6c.5 0 .9 1.1.9 2.5s-.5 2.5-1 2.5c-.6 0-1-.8-.8-1.8.2-1.1-.3-1.6-1.4-1.4-1.1.2-1.8-.3-1.8-1.2 0-.8-.8-1.9-1.7-2.5-1.7-.9-1.7-1.1.2-2.4 1.8-1.4 2.1-1.3 3.3 1.4.8 1.6 1.8 2.9 2.3 2.9zm-292.4 2.2c-.3.7-.5.2-.5-1.2s.2-1.9.5-1.3c.2.7.2 1.9 0 2.5zm9.3 3.8c0 .5-.4 1-1 1-.5 0-1-.5-1-1 0-.6.5-1 1-1 .6 0 1 .4 1 1zm-30.3 28.2c-.3.8-.6.5-.6-.6-.1-1.1.2-1.7.5-1.3.3.3.4 1.2.1 1.9zM617 353.5c0 .9-.6 1.2-1.5.9-.8-.4-1.5-1-1.5-1.5s.7-.9 1.5-.9 1.5.7 1.5 1.5zm-2.6 9.6c-.3.5-1 .7-1.5.3-.5-.3-.7-1-.3-1.5.3-.5 1-.7 1.5-.3.5.3.7 1 .3 1.5zm-3.4.9c0 .5-.2 1-.4 1-.3 0-.8-.5-1.1-1-.3-.6-.1-1 .4-1 .6 0 1.1.4 1.1 1zm19.7 19.6c-.3.3-1.2.4-1.9.1-.8-.3-.5-.6.6-.6 1.1-.1 1.7.2 1.3.5zM357 399.2c-.5 1.3-1.3 7.7-1.7 14.3-.7 9.7-1 11.6-2 10-.7-1.4-.9-5.4-.3-13.1.8-11.7 1.2-13.4 3.5-13.4 1.1 0 1.2.5.5 2.2zm114 .2c16.8 2.2 26.2 4.6 28.2 7 1.4 1.7 2 1.8 2.7.8.7-1.2 1.9-1.2 6.7-.2 11.8 2.4 19.7 7.2 24 14.6 6.3 10.7 1.1 34.8-12.7 59-2.4 4.2-6.4 9.7-8.8 12.3-2.5 2.5-4.5 4.9-4.5 5.3-.1.3-.5 1-1 1.5s-.6.2-.1-.6c.5-.9.3-1.2-.6-.9-.8.3-1.3 1-1.2 1.6.1.5-.5 1.6-1.5 2.4-1.5 1.2-1.6 1.1-.3-.5 1.8-2.3 1.2-2.2-4.5 1-6.9 3.9-15.4 5.2-36.9 5.9-31 1-57.6-2.6-68.3-9.3-8.3-5.1-12.5-14-15.8-33.3-1.8-11-2.1-41.4-.4-49.9.5-2.9 1-5.5 1-5.7 0-.2 1.4-1.9 3.1-3.9 3.7-4.2 12-7 24.9-8.4 11.7-1.3 52-.5 66 1.3zm148-.9c-4.6 1.8-6.4 1.7-2.5 0 1.7-.8 3.7-1.4 4.5-1.4.8 0-.1.7-2 1.4zm108.5 27.1c1.7 3.4 2 5.8 1.9 17.9 0 8.9-.7 17.3-1.8 23-2.1 10.6-7.5 27.5-8.8 27.5-.5 0-.6.4-.3 1 .3.5.2 1-.3 1-.4 0-1.8 1.7-2.9 3.7-2.3 4.1-8 10-8.8 9.1-.3-.3.8-2.2 2.5-4.3 8.9-11.3 15.8-34.8 17.6-60.2.8-11.5-.6-19.5-3.9-23.2l-2.2-2.5 2.5 1.5c1.4.9 3.4 3.3 4.5 5.5zm-93 14.5c.4.6.5 1.2.2 1.5-.7.7-3.7-.7-3.7-1.7 0-1.3 2.7-1.1 3.5.2zm-28 7.9c.3.5.1 1-.4 1-.6 0-1.1-.5-1.1-1 0-.6.2-1 .4-1 .3 0 .8.4 1.1 1zM292 584c-.6 1.2-1.4 1.9-1.7 1.7-.2-.3.1-1.5.7-2.7.6-1.2 1.4-1.9 1.7-1.7.2.3-.1 1.5-.7 2.7zm4.4 9.6c.3.8.2 1.2-.4.9-.6-.3-1-1-1-1.6 0-1.4.7-1.1 1.4.7zm285.3 31.6c-.3.8-.6.5-.6-.6-.1-1.1.2-1.7.5-1.3.3.3.4 1.2.1 1.9zm-10.9 0c.7.7 1.2 2.1 1.2 3.1 0 2.6-3 8.8-4 8.2-.5-.3-1 .1-1.3.7-.2.7-.8 1-1.2.6-.9-.9 2.3-13.8 3.4-13.8.4 0 1.2.5 1.9 1.2zM561 646c0 .5-.4 1-1 1-.5 0-1-.5-1-1 0-.6.5-1 1-1 .6 0 1 .4 1 1zm1 29.6c0 1.7-2.2 1.4-2.8-.4-.2-.7.3-1.2 1.2-1.2.9 0 1.6.7 1.6 1.6zm-.9 3.7c-.1 1.2-1.5.9-1.9-.4-.3-.6.1-1 .8-.8.6.3 1.1.8 1.1 1.2zm77.4 231.8c1.1 1.7-.1 2.1-1.5.4-.8-.9-.8-1.5-.2-1.5.6 0 1.4.5 1.7 1.1zm2.2 3.1c-.3.8-.6.5-.6-.6-.1-1.1.2-1.7.5-1.3.3.3.4 1.2.1 1.9zM487 937.6c0 .8-.4 1.4-1 1.4-.5 0-1-.9-1-2.1 0-1.1.5-1.7 1-1.4.6.3 1 1.3 1 2.1zm18.5 12.4c1 1.1 1.6 2 1.3 2-.3 0-1.3-.9-2.3-2-1-1.1-1.6-2-1.3-2 .3 0 1.3.9 2.3 2zm-167.2 20.1c-.4 1.5-.8 1.7-1.3.8-1-1.5-.1-4.1 1-3.4.5.3.6 1.4.3 2.6zm177.7 1.5c0 .2-1.1.4-2.5.4s-2.5-.4-2.5-.9c0-.4 1.1-.6 2.5-.3 1.4.2 2.5.6 2.5.8zm-176.5 1.6c-.6 1.6-.4 2 .8 1.5 1.1-.4 1.4-.2 1.1.8-.5 1.1-1 1.2-2.4.3-1.4-.9-1.6-1.5-.7-3 1.6-2.4 2-2.3 1.2.4zm169.5-.7c0 .8-.7 1.5-1.5 1.5-2.6 0-1.8-2 1.3-2.9.1-.1.2.6.2 1.4zm-2 4.5c0 .5-.7 1-1.6 1-.8 0-1.2-.5-.9-1 .3-.6 1-1 1.6-1 .5 0 .9.4.9 1zm2.8 5.6c2.3.7 3 2.8 1.2 3.9s-5-.6-5-2.6c0-2.1.3-2.2 3.8-1.3zm-162.7 3.1c1.3 1.6 1.2 1.7-.3.4-1.7-1.3-2.2-2.1-1.4-2.1.2 0 1 .8 1.7 1.7zm-1.9 3.5c-.7.7-1.2.8-1.2.2 0-1.4 1.2-2.6 1.9-1.9.2.3-.1 1.1-.7 1.7zm1.8 2.2c0 .3-.4.8-1 1.1-.5.3-1 .1-1-.4 0-.6.5-1.1 1-1.1.6 0 1 .2 1 .4zm191 2c0 1.8-3.8 1.7-4.4-.1-.4-.8.3-1.3 1.9-1.3 1.5 0 2.5.6 2.5 1.4zm-189.3 1.2c-.3.3-1.2.4-1.9.1-.8-.3-.5-.6.6-.6 1.1-.1 1.7.2 1.3.5zm63.3 8.4c0 .5-.5 1-1.1 1-.5 0-.7-.5-.4-1 .3-.6.8-1 1.1-1 .2 0 .4.4.4 1zm-9 2c0 .5-.4 1-1 1-.5 0-1-.5-1-1 0-.6.5-1 1-1 .6 0 1 .4 1 1zm2.7 7.2c-.3.7-.5.2-.5-1.2s.2-1.9.5-1.3c.2.7.2 1.9 0 2.5zm5.1.1c.5 2.4-1.5 2.1-2.1-.4-.3-1.3-.1-1.9.6-1.6.7.2 1.3 1.1 1.5 2zm7.6 5.2c-.4.8-1.1 1.5-1.6 1.5-.6 0-.5-.6.2-1.5.7-.8 1.4-1.5 1.6-1.5.2 0 .1.7-.2 1.5zm-3.1 1.6c.4 1.6.3 1.8-.9.8-.7-.6-1.1-1.5-.8-2 .8-1.3 1.1-1.1 1.7 1.2z"/><path d="M458 400.3c.9.9 4.5 1.7 9 2 5.6.4 6.8.3 4.5-.4-1.6-.5-4.6-1-6.4-1-1.9-.1-4.6-.5-6-1.1-2.3-.8-2.4-.7-1.1.5zM462.5 424.2c.5 1.2-.7 1.4-6.2 1.4-7.1 0-21.3 3.7-21.3 5.6 0 .5 1.3.7 3 .3 2.6-.6 3-.4 3 1.4 0 1.2.6 2.1 1.4 2.1.8 0 1.7.6 1.9 1.2.4.8.6.7.6-.4.1-2 2.7-4.8 4.5-4.8 1 0 1 1.2.2 5.7-.6 3.2-1.5 6.3-1.9 7-.5.8.6 1.5 3.5 2.3 7.6 1.9 10.5 3.6 10.4 6.2-.1 1.6.4 2.3 1.6 2.2 1-.1 1.7.1 1.6.5-.1.3.2 1.6.6 2.9.7 2.1 1.2 2.3 4.7 1.7 2.2-.4 3.9-.3 3.8.2-.1.4.2 1.7.6 2.7 1.1 2.5-2.1 5.2-4.2 3.5-1.2-1.1-1.7-.5-1.4 1.3 0 .5-.6.8-1.4.8-2.5 0-2.9.1-4.2 1.2-.7.5-1.8.6-2.4.2-.7-.4-.9-.3-.5.4s-1.7 1.3-6.1 1.8l-6.8.9 5 .5c5.1.5 21.3-1.1 27.5-2.8 6-1.7 13.5-4.4 14.5-5.3.5-.5 1.6-.9 2.5-.9.8 0 2.4-1 3.4-2.1 1.5-1.8 1.5-2.3.5-3-1.1-.7-1-.9.5-.9 1.2 0 1.6-.5 1.2-1.5-.3-.8-.1-1.5.4-1.5s2.1-.5 3.5-1c2.6-1 2.7-1.1 1.1-3.5-2-3-2-3.5-.1-3.5 3.2 0 1.5-6.2-3.5-12.4-1.5-1.9-12.5-7.6-14.7-7.6-.7 0-1.6-.6-2-1.3-.9-1.3-1.7-1.4-16.1-2.3-7.8-.6-9.1-.4-8.7.8zM456 434c0 1.8-.2 1.9-2 .8-1.1-.7-2-1.6-2-2 0-.5.9-.8 2-.8 1.3 0 2 .7 2 2zm12.4.6c3.2 1.2.9 8.9-2.8 9.6-1.9.4-2.1.1-1.8-2.3.3-1.7 1.2-2.9 2.6-3.3 1.9-.6 2-.7.3-1.7-.9-.6-1.5-1.4-1.2-2 .7-1.1.9-1.1 2.9-.3zM413.5 431.8c-1.6 1.1-3.7 2.7-4.5 3.7-1.4 1.8-1.3 1.8 1.8-.1 3-1.7 7.1-5.4 6.1-5.4-.2 0-1.7.8-3.4 1.8zM428 432.9c-1.3 1.1-2.8 1.7-3.2 1.5-.7-.5-7.8 3.3-7.8 4 0 .7 8.1-.2 8.8-.9.4-.5-.1-.5-1-.2-1 .4-1.8.2-1.8-.3s1.2-1 2.6-1.2c1.5-.2 3.3-1.3 4.2-2.6 1.8-2.7 1.4-2.7-1.8-.3z"/><path d="M442 443c0 .5.5 1 1.1 1 .5 0 .7-.5.4-1-.3-.6-.8-1-1.1-1-.2 0-.4.4-.4 1zM470.5 461c.3.5.8 1 1.1 1 .2 0 .4-.5.4-1 0-.6-.5-1-1.1-1-.5 0-.7.4-.4 1zM440.5 142c.3.5.8 1 1.1 1 .2 0 .4-.5.4-1 0-.6-.5-1-1.1-1-.5 0-.7.4-.4 1zM493 146.4c0 .4.7 2.3 1.6 4.4 3 6.9 4.3 11.3 3.4 10.7-.6-.3-1-1.2-1-1.9 0-.8-.7-1.9-1.5-2.6-1.2-1-1.3-.7-.4 2.2.6 1.8 1.3 4.2 1.6 5.3.3 1.1 1.5 3 2.6 4.2 1.1 1.3 1.7 2.3 1.2 2.3-.4 0-1.4-.8-2.2-1.8-1.2-1.5-1.3-1.3-.8 1.8 1 5.6 2.6 10 3.6 10 .5 0 .9.5.9 1.2 0 .6-1.2.1-2.6-1.3l-2.7-2.4 1.3 2.4c1.1 2.2 1.1 2.3-1.2 1.8-2.1-.6-1.8 0 2.1 4.3 2.5 2.8 5.2 5 5.9 5 .6 0 1.2.5 1.2 1 0 1.2 5 5.9 6.3 6 .5 0 2.3 1 4 2.2 2 1.4 3.2 1.8 3.5 1 .2-.8 1.1-.8 2.9-.1 1.5.5 3 .6 3.4.2.4-.4-.6-4.6-2.1-9.3-3-8.6-3.2-11.3-.8-6.5l1.4 2.6-.1-4c-.1-3.3-1.1-5.2-6.5-11.8-3.6-4.3-7.7-9.4-9.2-11.3-3.6-4.8-7.4-9-8.1-9-.4 0 .7 2.1 2.3 4.7 1.7 2.6 3 5.1 3 5.6s1.4 3 3 5.6l3 4.6-3.6-4c-1.9-2.2-5.4-7.7-7.6-12.2-3.6-7.1-7.8-13.1-7.8-10.9zM443 148.5c0 .2.8 2.6 1.9 5.2 1 2.6 2.1 7.1 2.5 10 .3 2.8 1.3 6.9 2.1 9l1.4 3.8v-3.7c.1-5.2-1.8-13.4-4.5-19.6-2-4.4-3.4-6.5-3.4-4.7z"/><path d="M493 164.2c0 .3.7 2.1 1.5 3.9 1.6 3.4 1.6 3.4 1 .4-.6-2.6-2.5-6-2.5-4.3zM443.6 173c.4 1.9 1.1 3.8 1.7 4.2.7.4.6 1.2-.4 2.4-.9 1.1-.9 1.5-.1 1s1.2 0 1.2 1.3c0 1.2.5 2.1 1 2.1.6 0 .9-1.2.9-2.8-.2-3.5-1.6-9.1-1.9-7.2-.1.9-.8.2-1.6-1.5l-1.4-3 .6 3.5zM440.1 173.6c0 1.1.3 1.4.6.6.3-.7.2-1.6-.1-1.9-.3-.4-.6.2-.5 1.3zM492.6 176.3c.3 1 .9 1.5 1.2 1.2.3-.3 0-1.1-.7-1.8-1-.9-1.1-.8-.5.6zM352.5 180c-.3.5-.2 1 .4 1 .5 0 1.3-.5 1.6-1 .3-.6.2-1-.4-1-.5 0-1.3.4-1.6 1zM363.9 182.1c-.2 7.9 0 11.2.9 12.1 1.1 1.1 2.9-.9 3.5-4.2.4-2.5.4-2.5 1.2-.3.4 1.3 1.2 2 1.9 1.7 1.5-.8-3.3 3.5-5.2 4.5-.8.5-1.2 1.4-.7 2 .5.9 1.2.8 2.7-.6 1.2-1 3.1-1.6 4.8-1.5 2 .2 3.2-.2 3.9-1.7 1.4-2.5 1.4-4.4.1-3.6-.6.4-.8 1.1-.5 1.6.4.5.1.9-.4.9-.6 0-2.3-1.8-3.7-4-1.8-2.7-3-3.7-3.5-2.9-.8 1.4-2.9-1.9-2.2-3.7.2-.6-.3-1.7-1.2-2.4-1.3-1.1-1.5-.8-1.6 2.1zM431.1 182.3c-.1 1.1-.6 1.5-1.3 1.1-.7-.5-.8-.3-.3.5 1 1.6 2.9-.2 2.2-2.1-.4-.8-.6-.7-.6.5zM453 181.9c0 .5.7 1.5 1.7 2.2 1.5 1.3 1.5 1.2.4-.9-1.2-2.3-2.1-2.8-2.1-1.3zM359 187c0 1.9.3 2.1 1.2 1.2.9-.9.9-1.5 0-2.4-.9-.9-1.2-.7-1.2 1.2zM469 187.4c0 .2.8 1 1.8 1.7 1.5 1.3 1.6 1.2.3-.4s-2.1-2.1-2.1-1.3zM500 190.9c0 .5.7 1.5 1.7 2.2 1.5 1.3 1.5 1.2.4-.9-1.2-2.3-2.1-2.8-2.1-1.3zM503 195.4c0 .2.8 1 1.8 1.7 1.5 1.3 1.6 1.2.3-.4s-2.1-2.1-2.1-1.3zM393 197c1.9 1.3 3 1.3 3 0 0-.6-1-1-2.2-1-1.9 0-2 .2-.8 1zM529.6 200.7c1.7 4.2 3.4 6.4 3.4 4.5 0-1.7-3.3-8.2-4.1-8.2-.5 0-.1 1.7.7 3.7zM374.8 198.8c-1 .2-1.8 1-1.8 1.8s-.4 1.4-1 1.4c-.5 0-1-.5-1-1 0-.6-.7-1-1.5-1s-1.5.5-1.5 1c0 .6.7 1.3 1.5 1.6.8.4 1.5 1.2 1.5 2 0 .7.8 1.7 1.7 2.3 1.4.8 1.5 1.2.4 2.5-2.1 2.5.5 1.9 2.9-.6 2.6-2.8 2.1-4.4-1.4-4-1.9.3-2.6 0-2.1-.7.3-.6 1-.9 1.4-.7 1.3.9 3.3-1.1 2.9-3-.2-1.2-.9-1.8-2-1.6zM384.5 199c-.3.5-.2 1 .4 1 .5 0 1.3-.5 1.6-1 .3-.6.2-1-.4-1-.5 0-1.3.4-1.6 1z"/><path d="M368.8 207.4c1.2 2.6 1.8 3.1 2.7 2.2 1-.8.7-1.6-1.2-3.3-3.2-3-3.3-2.9-1.5 1.1zM516.5 205c.3.5 1.1 1 1.6 1 .6 0 .7-.5.4-1-.3-.6-1.1-1-1.6-1-.6 0-.7.4-.4 1zM520 206.4c0 .2.7.9 1.5 1.6.9.7 1.5.8 1.5.2 0-.5-.7-1.2-1.5-1.6-.8-.3-1.5-.4-1.5-.2zM537.6 208.4c.5 1.4.4 1.7-.4 1.2-1.6-1-1.5.9.1 2.2 1 .9 1.3.6 1.2-1.3 0-1.3-.4-2.7-.8-3.1-.4-.5-.5 0-.1 1zM367 216.4c-1.9.7-3.5 1.8-3.5 2.4 0 2 .9 1.8 4.5-1 3.9-3.1 3.9-3.1-1-1.4zM350.2 217.2c.5 1.5 2.8 1.8 2.9.3 0-.6-.7-1.2-1.7-1.3-1-.3-1.5.1-1.2 1zM339 220.5c-1.4 1.6-1 1.8 1.4.9.9-.3 1.6-1 1.6-1.5 0-1.4-1.6-1.1-3 .6zM358 221c0 .5.4 1 .9 1 .6 0 1.3-.5 1.6-1 .3-.6-.1-1-.9-1-.9 0-1.6.4-1.6 1zM333.5 225.7c-3.1 4.3-4 7.4-1 3.8 1.4-1.7 2.5-3.3 2.5-3.8 0-.4.5-.7 1.1-.7.5 0 .7.6.3 1.2-.5.8-.1.8 1.2-.2 2.9-2.2 3-2.4 1.2-1.7-1 .4-1.8.2-1.8-.3 0-1.7-1.4-1-3.5 1.7zM348 224.1c0 .5.5.7 1 .4.6-.3 1-.8 1-1.1 0-.2-.4-.4-1-.4-.5 0-1 .5-1 1.1zM351.1 224.7c-1.7 1.9-1.3 2.1 3.2 1.5 4-.5 4.9-1.7 1.7-2.5-1.1-.3-1.8-.1-1.4.4.3.5.1.9-.5.9-.5 0-1.1-.4-1.3-.9-.1-.5-.9-.2-1.7.6zM343 225c0 .5.5 1 1 1 .6 0 1-.5 1-1 0-.6-.4-1-1-1-.5 0-1 .4-1 1zM354.6 231.7c-4.7 4.2-5.4 5.3-5.5 8.5-.1 2.5-.6 3.8-1.5 3.8-1.2 0-2.4 2.7-2.7 5.7 0 .5-.6 1.4-1.2 2.2-1 1.2-.9 1.3.2.6 1-.6 1.3-.4.9.6-.3.8-.2 3.3.1 5.6l.6 4.1 3.3-1.3c2.3-1 3.4-2.3 3.8-4.5.4-1.6 1.1-3 1.6-3 1.3 0 2.7-4.4 1.6-5.1-.6-.4-.1-2.4 1.2-4.9 1.2-2.3 1.9-4.4 1.6-4.8-.3-.3.3-1.2 1.4-1.9 1.4-1 1.9-2.1 1.5-3.4-.4-1.3-.2-1.8.7-1.6.7.2 1 .2.6 0-.5-.3-.8-1.6-.8-2.9 0-3.4-1.3-3-7.4 2.3zM341.5 229c-.3.5-.2 1 .4 1 .5 0 1.3-.5 1.6-1 .3-.6.2-1-.4-1-.5 0-1.3.4-1.6 1zM348.7 229.6c.4 1 0 1.2-1.1.8-.9-.3-1.6-.1-1.6.5s-.7 1.1-1.5 1.1c-1.9 0-6.5 2.1-6.5 3.1 0 .4 1.4.4 3-.1 2.5-.7 3.2-.5 4.1 1.2 1.2 2.3 2.2 1.8 2.4-1.5.1-1.3.9-2.3 2.1-2.4 1-.2 1.3 0 .7.3-.7.3-1.3 1-1.3 1.5 0 1.7 1.8.9 3.4-1.5 1.5-2.3 1.4-2.5-1.4-3.4-2.4-.9-2.8-.8-2.3.4z"/><path d="M331.3 233.2c-2.8 4.5-3.1 5.7-1.8 8.2 1.3 2.4 1.2 2.6-.8 2.7-1.7.1-1.8.2-.4.6 1 .2 1.6 1 1.5 1.6-.3 1.7 2.4 5.7 3.9 5.7.7 0 1.3-.6 1.3-1.4 0-.8.5-1.6 1.1-1.8 1.7-.6.1-4.6-1.9-5.1-1.4-.3-1.5-.5-.2-1 .8-.3 2.6-.8 4-1.1 2.2-.5 5.7-4.2 4.8-5.1-.2-.2-2.1 0-4.1.5-3.2.7-3.6.6-2.6-.6.9-1.1.8-1.4-.8-1.4-1 0-2.4.5-3.1 1.2-1.5 1.5-1.6.3-.2-2.3 1.2-2.1.6-2.6-.7-.7zm4 13.5c-.7.2-2.1.2-3 0-1-.3-.4-.5 1.2-.5 1.7 0 2.4.2 1.8.5zm-1.8 2.3c.3.5.1 1-.4 1-.6 0-1.1-.5-1.1-1 0-.6.2-1 .4-1 .3 0 .8.4 1.1 1zM346.6 239.9c-.4.7-.5 1.5-.2 1.8.9.9 1.9-.4 1.4-1.8-.4-1.1-.6-1.1-1.2 0zM324 243.9c0 .6.4 1.3 1 1.6.6.3.7-.1.4-.9-.7-1.8-1.4-2.1-1.4-.7zM340.3 244.7c-1.5.5-1.7 2.3-.4 2.3.5 0 1.1-.7 1.5-1.5.3-.8.4-1.5.3-1.4-.1 0-.8.3-1.4.6zM346.2 265.9c-.8.5-1.2 1.6-1 2.6.4 2.5 2.8 3.1 2.8.8 0-1.1.5-2.4 1.2-3.1.9-.9.9-1.2-.2-1.2-.8 0-2.1.4-2.8.9zM342 274.8c0 .5.7.9 1.5.9s1.2-.4.9-.9c-.3-.4-.9-.8-1.5-.8-.5 0-.9.4-.9.8zM326 282.7c0 .7.7 1.3 1.5 1.3s1.5-.6 1.5-1.3c0-.8-.7-1.4-1.5-1.4s-1.5.6-1.5 1.4zM302.6 287.6c-.4.9-.4 1.9-.1 2.2.2.3.7-.3 1.1-1.2.4-.9.4-1.9.1-2.2-.2-.3-.7.3-1.1 1.2zM294.8 312.3c-.5 1-.8 3.1-.8 4.5.1 2.4.2 2.5 1.1.9.6-1 .9-3 .7-4.5-.2-2.3-.4-2.4-1-.9zM286.4 317.1c-.4.7-.7 2.5-.6 4 0 1.6-.2 2.8-.6 2.6-.8-.2-1.2.7-1.2 2.9 0 2.4 1.9.6 3.5-3.3 1.1-2.7 1.2-3.8.4-4.4-.6-.4-.8-1.2-.5-1.8.4-.6.5-1.1.2-1.1s-.8.5-1.2 1.1zM281.7 321.7c-.4.3-.7 1.1-.7 1.7 0 .6.5.5 1.2-.2.6-.6.9-1.4.7-1.7-.3-.3-.9-.2-1.2.2zM281.2 328.3c-.7 1.6-1.2 3.6-1.2 4.6 0 .9-.6 2.3-1.2 3-1.1 1-1 1.1.5.6.9-.4 1.7-1.5 1.7-2.4 0-.9.5-2.2 1.1-2.8.6-.6.9-2.1.7-3.4-.4-2.4-.5-2.4-1.6.4zM579.5 327c-.3.5-.1 1 .4 1 .6 0 1.1-.5 1.1-1 0-.6-.2-1-.4-1-.3 0-.8.4-1.1 1zM580 333.1c0 .5.5.7 1 .4.6-.3 1-.8 1-1.1 0-.2-.4-.4-1-.4-.5 0-1 .5-1 1.1zM585.2 338c0 1.4.2 1.9.5 1.2.2-.6.2-1.8 0-2.5-.3-.6-.5-.1-.5 1.3zM587 343c0 .5.5 1 1 1 .6 0 1-.5 1-1 0-.6-.4-1-1-1-.5 0-1 .4-1 1zM269.7 384.4c-.4 1-.5 2.1-.2 2.4.9.9 1.7-.6 1.3-2.5-.3-1.7-.4-1.7-1.1.1zM276.5 384c.4.6 1.1.8 1.6.5 1.4-.9 1.1-1.5-.7-1.5-.8 0-1.2.5-.9 1zM619.2 386.7c.2 1 1.2 1.9 2.3 2 1.1.2 1.4 0 .8-.3-.7-.3-1.3-1.2-1.3-2s-.5-1.4-1.1-1.4c-.6 0-.9.8-.7 1.7zM591.1 388.5c0 1.1.4 2.7.9 3.5.9 1.3 1 1.3.9 0 0-.8-.4-2.4-.9-3.5l-.9-2v2zM598.3 391.9c-.7 1-.9 2.2-.6 2.5 1.3 1.2 2.1.5 2.1-1.9 0-3 0-3-1.5-.6zM609.5 391c-.3.5.1 1 1 1s1.3-.5 1-1c-.3-.6-.8-1-1-1-.2 0-.7.4-1 1zM342.7 406.8c-1.4.3-1.6 1-1.1 4 1 5.6 2.1 5.9 2.9.7.7-5.2.7-5.3-1.8-4.7zM301 408.8c0 .6-.7.9-1.5.6-1.1-.5-1.5.1-1.5 2v2.7l3-1.7c1.6-1 2.6-2.1 2.2-2.4-.4-.3-1-.9-1.4-1.4-.5-.5-.8-.4-.8.2zM293 416.1c0 .5.5.7 1 .4.6-.3 1-.8 1-1.1 0-.2-.4-.4-1-.4-.5 0-1 .5-1 1.1zM277 418.8c0 1.7.4 3.4 1 3.7.6.4.7-.6.3-2.7-.8-4.4-1.3-4.8-1.3-1zM286 419.1c0 1.1.5 1.7 1 1.4 1.3-.8 1.3.6-.1 2.5-.8 1.1-1.2 1.2-1.6.2-.6-1.5-3.3-1.6-3.3-.1 0 .5.4.7 1 .4.5-.3.7 0 .4.9-.4 1.2-1.1 1.3-3.1.5-2.5-.9-2.5-.9-1 1.5 1.4 2 1.4 2.5.2 3-.7.2-1.6 0-1.9-.7-.3-.9-.8-.8-1.5.3-.9 1.2-.3 2.3 3 5.2 3.8 3.5 7.6 4.8 9.2 3.1.4-.3.3-1.1-.3-1.8s-.4-2.9.6-6.1c1.2-4.1 1.2-5.7.3-8-.7-1.6-1.2-3.2-1.1-3.7.1-.4-.2-.7-.8-.7-.5 0-1 .9-1 2.1zM280 419.1c0 .5.5.7 1 .4.6-.3 1-.8 1-1.1 0-.2-.4-.4-1-.4-.5 0-1 .5-1 1.1zM292 419c0 .5.5 1 1 1 .6 0 1-.5 1-1 0-.6-.4-1-1-1-.5 0-1 .4-1 1zM294.5 431c-1.6.7-1.7.9-.3.9.9.1 2-.4 2.3-.9.7-1.1.7-1.1-2 0zM461.8 537.7c-1.6.8-2.8 1.8-2.8 2.3 0 .5-1.2 1.1-2.7 1.5-2.9.6-9.3 5.8-9.3 7.4 0 .4-1.8 2.3-4.1 4.2-2.3 1.8-3.7 3.5-3.1 3.7.5.1-1.5 2.8-4.5 6-6.7 7.1-5.8 6.2-11.7 11.4-15.1 13.2-18.9 18.8-18.5 27.6.3 5.3 2.6 12.7 5.8 18.7 1.1 2.2 2.1 4.4 2.1 5 0 .5 1 1.9 2.3 3 1.3 1.1 2.7 2.9 3.1 4 1.8 4.3 1.8-1 .1-10.9-1.7-9.7-1.7-10.3.1-14.4 1.2-2.7 2.5-4.2 3.7-4.2 1.5 0 1.7-.6 1.2-3.8-1.1-6.2-1.2-6.4-3.5-5.2-1.2.6-2.5 2.3-3 3.6-.9 2.3-1.2 2.4-2.5 1-4.2-4.1.3-11.2 13.7-21.9 5.1-4.1 13.8-11.8 19.3-17.1 5.5-5.4 11.5-10.8 13.2-12 1.8-1.3 3.1-2.5 2.8-2.8-.3-.2.9-1.7 2.5-3.3 1.7-1.6 3-3.5 3-4.2 0-1.7-3.7-1.5-7.2.4zM517.3 551c-3.5 1.4-2.8 1.9 2.2 1.8 3.1 0 4.5-.5 4.5-1.4 0-1.6-3.3-1.7-6.7-.4z"/><path d="M430.1 606.7c1.8 4.9 19.4 19.3 23.5 19.3 1.1 0 3.9.9 6.3 2.1 3.1 1.3 4.8 1.6 5.5.9 1.5-1.5 3-1.2 1.7.4-1 1.2-.3 1.7 3.9 3.1 2.8.9 5.4 1.4 5.7 1.1.4-.3.1-.6-.5-.6-.7 0-1.2-.5-1.2-1.1 0-.5.4-.8.9-.5 1.1.7 3.3-1.8 2.4-2.7-.3-.4-1.5.1-2.5 1-1.5 1.3-2.3 1.5-3.6.7-2.7-1.7-6.1-8.6-6.6-13.5-.3-2.4-.8-6-1.1-8l-.7-3.6-9.5-.7c-7.7-.6-10.2-.4-13.9 1-4.3 1.6-4.7 1.6-7.4.1-3.8-2.3-4.1-2.2-2.9 1zM479.5 633.9c-.3.5-.1 1.2.5 1.6.5.3 1-.1 1-.9 0-1.8-.6-2.1-1.5-.7zM291.3 645.2c-.9 1.8-1.6 3.7-1.5 4.2.2.5-.4 1.6-1.2 2.5-1.2 1.3-1.5 3.8-1.2 11.6.6 16.7 6.7 31.9 22.6 55.8 9 13.6 12 16.5 4.8 4.5-2.4-4-6.4-11.6-8.7-16.8-6.1-13.3-6.8-15-8.1-19.5-.7-2.2-1.9-5.4-2.7-7.2-1.2-2.5-1.4-4.8-.7-11 .4-4.3.7-8.2.6-8.6-.1-.4.3-1.8.9-3 1.4-2.6 2.2-10.2 1.4-13.4-.8-3.4-4.1-2.9-6.2.9zM551.6 682.9c-.3.5.3 2 1.3 3.2 1.5 1.8 2.2 2.1 3.1 1.3 1.7-1.7.3-5.4-2-5.4-1 0-2.1.4-2.4.9zM559.1 685.6c0 1.1.3 1.4.6.6.3-.7.2-1.6-.1-1.9-.3-.4-.6.2-.5 1.3zM538.5 747c-.3.5.1 1 1 1s1.3-.5 1-1c-.3-.6-.8-1-1-1-.2 0-.7.4-1 1zM519.5 763c.3.5.8 1 1.1 1 .2 0 .4-.5.4-1 0-.6-.5-1-1.1-1-.5 0-.7.4-.4 1zM273 833.7c0 .5.5 1.5 1 2.3.8 1.2 1 1.1 1-.8 0-1.2-.4-2.2-1-2.2-.5 0-1 .3-1 .7zM279 847.8c0 1.9 1.2 4.2 2.2 4.2 1.4 0 .5-4.3-.9-4.8-.7-.2-1.3.1-1.3.6zM285 878.6c0 .8.5 1.2 1 .9.6-.3 1-1 1-1.6 0-.5-.4-.9-1-.9-.5 0-1 .7-1 1.6zM281.5 887.1c-.4.6-.5 1.3-.2 1.6.7.7 2.7-.6 2.7-1.8 0-1.2-1.7-1.2-2.5.2zM290.5 896.5c-.4 1.1-3.7 8.1-7.2 15.5-8.2 17.2-7.5 15.5-12.7 29.5-2.5 6.6-5.2 13.7-6.1 15.8-.9 2.2-1.4 4.6-1.2 5.5.2 1.1.8.4 1.4-1.8 4.5-14.2 12.6-33.6 21.5-51.4 3.2-6.5 5.7-12.6 5.5-13.5-.3-1.3-.5-1.3-1.2.4zM277 897.6c0 .8.5 1.2 1 .9.6-.3 1-1 1-1.6 0-.5-.4-.9-1-.9-.5 0-1 .7-1 1.6zM272 908.6c0 .8.5 1.2 1 .9.6-.4.8-1.1.5-1.6-.9-1.4-1.5-1.1-1.5.7zM266.6 919.9c-.4.7-.5 1.5-.2 1.8.9.9 1.9-.4 1.4-1.8-.4-1.1-.6-1.1-1.2 0zM261.7 932.7c-.4.3-.7 1.1-.7 1.7 0 .6.5.5 1.2-.2.6-.6.9-1.4.7-1.7-.3-.3-.9-.2-1.2.2zM422 935c-1.3.8-1.2 1 .3 1 .9 0 1.7-.5 1.7-1 0-1.2-.1-1.2-2 0zM390.5 936c.3.5.8 1 1.1 1 .2 0 .4-.5.4-1 0-.6-.5-1-1.1-1-.5 0-.7.4-.4 1zM405.8 935.7c.7.3 1.6.2 1.9-.1.4-.3-.2-.6-1.3-.5-1.1 0-1.4.3-.6.6zM437 936c2 1.3 4 1.3 4 0 0-.6-1.2-1-2.7-1-2.2 0-2.5.2-1.3 1zM452.4 936.1c-.3.5.6.9 2 .9 3.1 0 3.4-.6.6-1.3-1.1-.3-2.3-.1-2.6.4zM374.8 936.7c.7.3 1.6.2 1.9-.1.4-.3-.2-.6-1.3-.5-1.1 0-1.4.3-.6.6zM467 937c0 .5 1.2 1 2.6 1 1.4 0 2.3-.4 1.9-1-.3-.6-1.5-1-2.6-1-1 0-1.9.4-1.9 1zM343.4 938.5c1 .8 2.3 1.2 2.8.9 1.4-.9-.2-2.4-2.5-2.4-2.1.1-2.1.1-.3 1.5zM358.8 937.7c.7.3 1.6.2 1.9-.1.4-.3-.2-.6-1.3-.5-1.1 0-1.4.3-.6.6zM256 947.1c0 .5.5.7 1 .4.6-.3 1-.8 1-1.1 0-.2-.4-.4-1-.4-.5 0-1 .5-1 1.1zM326.1 949.6c0 1.1.3 1.4.6.6.3-.7.2-1.6-.1-1.9-.3-.4-.6.2-.5 1.3zM251 960c0 .5.5 1 1 1 .6 0 1-.5 1-1 0-.6-.4-1-1-1-.5 0-1 .4-1 1zM260.7 968.2c-.8 1.8-1.8 4.8-2.2 6.7-.4 1.9-1.8 5.4-3.1 7.9s-2.4 5.1-2.4 5.9c0 .7-.7 1.6-1.5 1.9-.9.4-1.5 1.9-1.5 3.5 0 1.7-.6 3.2-1.4 3.5-.8.3-1.4 1.3-1.4 2.2.1.9-.6 3.5-1.6 5.7-3 6.7-3.5 7.8-5.6 13.2l-2 5.3h2c1.2 0 2.4-1 3-2.4.5-1.3 1.4-2.7 2-3.1.6-.4.9-1.4.5-2.3-.3-.8-.1-1.8.4-2.1.5-.4 1.2-2.8 1.5-5.4.3-2.6 1.8-7.3 3.3-10.5 1.5-3.1 2.8-6.2 2.9-6.7.1-.6 1.6-3.9 3.2-7.5 3.2-7 6.7-17.9 5.9-18.6-.2-.3-1.1 1-2 2.8zM246.7 971.6c-.4.4-.7 1.4-.7 2.3 0 1.1.3 1.2 1.1.4.6-.6 1-1.6.7-2.3-.2-.6-.7-.8-1.1-.4zM240.6 982.8c-.3.6-.1 1.4.5 1.7 1.5 1 2.5-.3 1.2-1.6-.7-.7-1.3-.7-1.7-.1zM237 990.5c0 .8.7 1.5 1.5 1.5.9 0 1.2-.6.9-1.5-.4-.8-1-1.5-1.5-1.5s-.9.7-.9 1.5zM233 999c0 .5.7 1 1.6 1 .8 0 1.2-.5.9-1-.3-.6-1-1-1.6-1-.5 0-.9.4-.9 1zM230 1005c0 .5.7 1 1.6 1 .8 0 1.2-.5.9-1-.3-.6-1-1-1.6-1-.5 0-.9.4-.9 1zM228 1011c0 .5.7 1 1.6 1 .8 0 1.2-.5.9-1-.3-.6-1-1-1.6-1-.5 0-.9.4-.9 1zM225 1018c0 .5.7 1 1.6 1 .8 0 1.2-.5.9-1-.3-.6-1-1-1.6-1-.5 0-.9.4-.9 1z"/></svg>